<?xml version="1.0" encoding="UTF-8"?>
<svg id="Layer" xmlns="http://www.w3.org/2000/svg" version="1.1" viewBox="0 0 95.7 19">
  <!-- Generator: Adobe Illustrator 30.0.0, SVG Export Plug-In . SVG Version: 2.1.1 Build 123)  -->
  <path id="X" d="M74.2,8.6c.4,0,.9,0,1.4-.2.6-.2.9-.5.9-.9s-.4-.6-1.3-.6h-8.6c-.7,0-1-.3-1-.9s0-.6.3-.9l2-3.5c.3-.5.7-.9,1.2-1.2.5-.3,1.1-.5,1.5-.5h8.6c.7,0,1,.3,1,.9s0,.6-.2.9l-1,1.7c-.2.3-.2.6-.2.9,0,.6.3.9,1,.9s.9-.2,1.5-.5c.5-.3.9-.7,1.2-1.2l1-1.7c.3-.5.7-.9,1.2-1.2s1.1-.5,1.5-.5h8.6c.7,0,1,.3,1,.9s0,.6-.2.9l-2,3.5c-.3.5-.7.9-1.2,1.2-.5.3-1,.5-1.5.5h-8.6c-.4,0-.9,0-1.4.2-.6.2-.9.5-.9.9s.4.6,1.3.6h8.6c.7,0,1,.3,1,.9s0,.6-.3.9l-4,6.9c-.3.5-.7.9-1.2,1.2-.5.3-1,.5-1.5.5h-8.6c-.7,0-1-.3-1-.9s0-.5.3-.9l3-5.2c.2-.3.2-.6.2-.9,0-.6-.3-.9-1-.9s-1,.2-1.5.5-.9.8-1.2,1.2l-3,5.2c-.3.5-.7.9-1.2,1.2-.5.3-1.1.5-1.5.5h-8.6c-.7,0-1-.3-1-.9s0-.5.2-.9l4-6.9c.3-.5.7-.9,1.2-1.2s1.1-.5,1.5-.5h8.6,0Z"/>
  <path id="S" d="M52.7,6.9c-.7,0-1-.3-1-.9s0-.6.2-.9l1-1.7c.2-.3.2-.6.2-.9,0-.6-.3-.9-1-.9s-1,.2-1.5.5c-.5.3-.9.7-1.2,1.2l-2,3.5c-.2.3-.2.6-.2.9,0,.6.3.9,1,.9h12.1c.7,0,1,.3,1,.9s0,.6-.2.9l-4,6.9c-.3.5-.7.9-1.2,1.2-.5.3-1,.5-1.5.5h-24.2c-.6,0-1-.3-1-.9s0-.5.2-.9l2-3.5c.3-.5.7-.9,1.2-1.2.5-.3,1-.5,1.5-.5h8.6c.7,0,1,.3,1,.9s0,.6-.3.9l-1,1.7c-.2.3-.3.6-.3.9,0,.6.3.9,1,.9s1-.2,1.5-.5.9-.8,1.2-1.2l2-3.4c.2-.3.3-.6.3-.9,0-.6-.3-.9-1-.9h-12.1c-.7,0-1-.3-1-.9s0-.6.3-.9l4-6.9c.3-.5.7-.9,1.2-1.2C40.2.2,40.7,0,41.1,0h24.2c.7,0,1,.3,1,.9s0,.6-.3.9l-2,3.5c-.3.5-.7.9-1.2,1.2-.5.3-1,.5-1.5.5h-8.6,0Z"/>
  <path id="C" d="M23.5,6.9c-.7,0-1-.3-1-.9s0-.6.2-.9l1-1.7c.2-.3.2-.6.2-.9,0-.6-.3-.9-1-.9s-1,.2-1.5.5c-.5.3-.9.8-1.2,1.2l-7,12.1c-.2.3-.3.6-.3.9,0,.6.3.9,1,.9s1-.2,1.5-.5c.5-.3.9-.7,1.2-1.2l3-5.2c.3-.5.7-.9,1.2-1.2s1-.5,1.5-.5h8.6c.7,0,1,.3,1,.9s0,.6-.3.9l-4,6.9c-.3.5-.7.9-1.2,1.2-.5.3-1,.5-1.5.5H1c-.7,0-1-.3-1-.9s0-.5.2-.9L9.2,1.7c.3-.5.7-.9,1.2-1.2C11,.2,11.5,0,12,0h24.2c.7,0,1,.3,1,.9s0,.6-.2.9l-2,3.5c-.3.5-.7.9-1.2,1.2-.5.3-1,.5-1.5.5h-8.6Z"/>
</svg>