<?xml version="1.0" encoding="UTF-8"?><svg id="black" xmlns="http://www.w3.org/2000/svg" viewBox="0 0 341.57 341.57"><circle cx="170.94" cy="170.79" r="170.23" style="stroke:#fff; stroke-miterlimit:10;"/><circle cx="170.79" cy="170.79" r="141.73" style="fill:none; stroke:#fff; stroke-miterlimit:10; stroke-width:15px;"/><path d="M79.5,100.74s29.84-8.53,56.84,29.84" style="fill:none; stroke:#fff; stroke-linecap:round; stroke-linejoin:round; stroke-width:15px;"/><path d="M92.28,152.17s11.37-52.57,49.73-71.04" style="fill:none; stroke:#fff; stroke-linecap:round; stroke-linejoin:round; stroke-width:15px;"/><path d="M261.5,100.74s-29.84-8.53-56.84,29.84" style="fill:none; stroke:#fff; stroke-linecap:round; stroke-linejoin:round; stroke-width:15px;"/><path d="M248.71,152.17s-11.37-52.57-49.73-71.04" style="fill:none; stroke:#fff; stroke-linecap:round; stroke-linejoin:round; stroke-width:15px;"/><path d="M170.79,223.34c19.82,0,37.37,9.65,48.24,24.51,3.51,4.8,11.15,2.39,11.21-3.55,0-.19,0-.39,0-.58,0-34.44-29.14-62.07-64.11-59.59-29.32,2.08-53,25.7-55.2,55.01-.15,2.06-.2,4.09-.15,6.1.15,5.91,7.83,8.18,11.24,3.36,10.82-15.28,28.62-25.26,48.77-25.26Z" style="fill:none; stroke:#fff; stroke-linecap:round; stroke-linejoin:round; stroke-width:15px;"/></svg>