<?xml version="1.0" encoding="UTF-8"?><svg id="Layer_2" xmlns="http://www.w3.org/2000/svg" viewBox="0 0 340.66 340.66"><g id="Layer_4"><circle cx="170.33" cy="170.33" r="170.08" style="stroke:#fff; stroke-miterlimit:10; stroke-width:.5px;"/><circle cx="171.33" cy="170.33" r="141.73" style="fill:none; stroke:#fff; stroke-miterlimit:10; stroke-width:15px;"/><circle cx="224.87" cy="170.33" r="19.81" style="fill:#fff;"/><circle cx="117.79" cy="170.33" r="19.81" style="fill:#fff;"/><circle cx="171.33" cy="116.13" r="19.81" style="fill:#fff;"/><circle cx="171.33" cy="224.52" r="19.81" style="fill:#fff;"/><path d="M225.21,198.76c-.47,0-.93.02-1.39.04-2.36.15-4.74.05-7-.63-11.98-3.6-20.7-14.7-20.7-27.85s8.73-24.25,20.7-27.85c2.26-.68,4.64-.78,7-.63.46.03.92.04,1.38.04,15.01,0,26.98-12.99,25.28-28.34-1.29-11.67-10.72-21.1-22.39-22.39-15.35-1.7-28.34,10.28-28.34,25.28,0,.47.02.93.04,1.39.15,2.36.05,4.74-.63,7-3.6,11.98-14.7,20.7-27.85,20.7s-24.25-8.73-27.85-20.7c-.68-2.26-.78-4.64-.63-6.99.03-.46.04-.92.04-1.38,0-15.01-12.99-26.98-28.34-25.28-11.67,1.29-21.1,10.72-22.39,22.39-1.7,15.35,10.28,28.34,25.28,28.34.47,0,.93-.02,1.38-.04,2.36-.15,4.74-.05,7,.63,11.98,3.6,20.7,14.7,20.7,27.85s-8.73,24.25-20.7,27.85c-2.26.68-4.64.78-7,.63-.46-.03-.92-.04-1.38-.04-15.01,0-26.98,12.99-25.28,28.34,1.29,11.67,10.72,21.1,22.39,22.39,15.35,1.7,28.34-10.28,28.34-25.28,0-.47-.02-.93-.04-1.38-.15-2.36-.05-4.73.63-6.99,3.6-11.98,14.7-20.7,27.85-20.7s24.25,8.73,27.85,20.7c.68,2.26.78,4.64.63,7-.03.46-.04.92-.04,1.39,0,15.01,12.99,26.98,28.34,25.28,11.67-1.29,21.1-10.72,22.39-22.39,1.7-15.35-10.28-28.34-25.28-28.34Z" style="fill:#fff;"/></g></svg>