<?xml version="1.0" encoding="UTF-8"?><svg id="Layer_2" xmlns="http://www.w3.org/2000/svg" viewBox="0 0 238.02 123.38"><g id="Layer_9"><path d="M209.31,34.99h-17.28c-2.45,0-4.86.62-7.2,1.86-1.87-1.18-4.14-1.86-6.63-1.86h-17.28c-1.79,0-3.56.33-5.3,1-1.51-.64-3.19-1-5-1h-48.38c-1.75,0-3.47.32-5.15.95-1.47-.61-3.11-.95-4.86-.95h-9.71c1.29-.5,2.59-.99,3.92-1.45,16.44-5.67,35.44-8.77,48-11.1,2.65-.49,4.85-.47,4.85-.47.99.41,1.61,1.41,1.53,2.48l-.48,6.3c-.11,1.39,1.63,2.11,2.53,1.04l4.09-4.81c.7-.82,1.84-1.1,2.83-.69l5.84,2.41c1.29.53,2.51-.9,1.78-2.09l-2.86-4.65-.78-1.67c-.1-.69.09-1.41.56-1.97l4.09-4.81c.9-1.06-.08-2.66-1.44-2.33l-6.14,1.49c-1.04.25-2.13-.2-2.7-1.11l-3.31-5.38c-.73-1.19-2.56-.75-2.66.65l-.48,6.3c-.08,1.07-.85,1.97-1.89,2.22l-6.14,1.49c-.11.03-41.01,5.62-64,16.68-1.01.48-1.99.98-2.98,1.48h-22.83c-2.85,0-5.66.85-8.35,2.52-2.51,1.56-4.46,3.58-5.82,6l-17.96,31.03-.15.26c-1.13,2.09-1.7,4.27-1.7,6.47,0,.69.07,1.37.18,2.02-4.8,9.03-6,17.5-2.69,24.38,9.53,19.83,52.89,18.77,96.83-2.37,7.83-3.76,15.14-7.92,21.82-12.3h2.65c1.8,0,3.58-.34,5.32-1,1.5.64,3.18,1,4.98,1h17.29c2.44,0,4.84-.62,7.17-1.84,1.88,1.17,4.15,1.84,6.65,1.84h17.28c2.89,0,5.71-.87,8.4-2.57,2.37-1.51,4.27-3.44,5.65-5.74l7.96-13.89c1.09-1.82,1.73-3.72,1.91-5.66,1.67-1.31,3.04-2.87,4.1-4.65l4.06-7.08.13-.23c1.13-2.09,1.7-4.27,1.7-6.47,0-6.69-5.13-11.73-11.94-11.73ZM115.11,93.13c-36.47,17.54-72.46,18.42-80.37,1.96-.32-.67-.58-1.37-.8-2.09h36.34c1.72,0,3.44-.32,5.13-.96,1.48.61,3.12.96,4.88.96h35.07c-.08.04-.17.08-.25.12Z"/><path d="M209.31,34.99h-17.28c-2.45,0-4.86.62-7.2,1.86-1.87-1.18-4.14-1.86-6.63-1.86h-17.28c-1.79,0-3.56.33-5.3,1-1.51-.64-3.19-1-5-1h-48.38c-1.75,0-3.47.32-5.15.95-1.47-.61-3.11-.95-4.86-.95h-9.71c1.29-.5,2.59-.99,3.92-1.45,16.44-5.67,35.44-8.77,48-11.1,2.65-.49,4.85-.47,4.85-.47.99.41,1.61,1.41,1.53,2.48l-.48,6.3c-.11,1.39,1.63,2.11,2.53,1.04l4.09-4.81c.7-.82,1.84-1.1,2.83-.69l5.84,2.41c1.29.53,2.51-.9,1.78-2.09l-2.86-4.65-.78-1.67c-.1-.69.09-1.41.56-1.97l4.09-4.81c.9-1.06-.08-2.66-1.44-2.33l-6.14,1.49c-1.04.25-2.13-.2-2.7-1.11l-3.31-5.38c-.73-1.19-2.56-.75-2.66.65l-.48,6.3c-.08,1.07-.85,1.97-1.89,2.22l-6.14,1.49c-.11.03-41.01,5.62-64,16.68-1.01.48-1.99.98-2.98,1.48h-22.83c-2.85,0-5.66.85-8.35,2.52-2.51,1.56-4.46,3.58-5.82,6l-17.96,31.03-.15.26c-1.13,2.09-1.7,4.27-1.7,6.47,0,.69.07,1.37.18,2.02-4.8,9.03-6,17.5-2.69,24.38,9.53,19.83,52.89,18.77,96.83-2.37,7.83-3.76,15.14-7.92,21.82-12.3h2.65c1.8,0,3.58-.34,5.32-1,1.5.64,3.18,1,4.98,1h17.29c2.44,0,4.84-.62,7.17-1.84,1.88,1.17,4.15,1.84,6.65,1.84h17.28c2.89,0,5.71-.87,8.4-2.57,2.37-1.51,4.27-3.44,5.65-5.74l7.96-13.89c1.09-1.82,1.73-3.72,1.91-5.66,1.67-1.31,3.04-2.87,4.1-4.65l4.06-7.08.13-.23c1.13-2.09,1.7-4.27,1.7-6.47,0-6.69-5.13-11.73-11.94-11.73ZM115.11,93.13c-36.47,17.54-72.46,18.42-80.37,1.96-.32-.67-.58-1.37-.8-2.09h36.34c1.72,0,3.44-.32,5.13-.96,1.48.61,3.12.96,4.88.96h35.07c-.08.04-.17.08-.25.12Z" style="fill:none; stroke:#000; stroke-miterlimit:10; stroke-width:3px;"/><path d="M208.31,33.99h-17.28c-2.45,0-4.86.62-7.2,1.86-1.87-1.18-4.14-1.86-6.63-1.86h-17.28c-1.79,0-3.56.33-5.3,1-1.51-.64-3.19-1-5-1h-48.38c-1.75,0-3.47.32-5.15.95-1.47-.61-3.11-.95-4.86-.95h-9.71c1.29-.5,2.59-.99,3.92-1.45,16.44-5.67,35.44-8.77,48-11.1,2.65-.49,4.85-.47,4.85-.47.99.41,1.61,1.41,1.53,2.48l-.48,6.3c-.11,1.39,1.63,2.11,2.53,1.04l4.09-4.81c.7-.82,1.84-1.1,2.83-.69l5.84,2.41c1.29.53,2.51-.9,1.78-2.09l-2.86-4.65-.78-1.67c-.1-.69.09-1.41.56-1.97l4.09-4.81c.9-1.06-.08-2.66-1.44-2.33l-6.14,1.49c-1.04.25-2.13-.2-2.7-1.11l-3.31-5.38c-.73-1.19-2.56-.75-2.66.65l-.48,6.3c-.08,1.07-.85,1.97-1.89,2.22l-6.14,1.49c-.11.03-41.01,5.62-64,16.68-1.01.48-1.99.98-2.98,1.48h-22.83c-2.85,0-5.66.85-8.35,2.52-2.51,1.56-4.46,3.58-5.82,6l-17.96,31.03-.15.26c-1.13,2.09-1.7,4.27-1.7,6.47,0,.69.07,1.37.18,2.02-4.8,9.03-6,17.5-2.69,24.38,9.53,19.83,52.89,18.77,96.83-2.37,7.83-3.76,15.14-7.92,21.82-12.3h2.65c1.8,0,3.58-.34,5.32-1,1.5.64,3.18,1,4.98,1h17.29c2.44,0,4.84-.62,7.17-1.84,1.88,1.17,4.15,1.84,6.65,1.84h17.28c2.89,0,5.71-.87,8.4-2.57,2.37-1.51,4.27-3.44,5.65-5.74l7.96-13.89c1.09-1.82,1.73-3.72,1.91-5.66,1.67-1.31,3.04-2.87,4.1-4.65l4.06-7.08.13-.23c1.13-2.09,1.7-4.27,1.7-6.47,0-6.69-5.13-11.73-11.94-11.73ZM114.11,92.13c-36.47,17.54-72.46,18.42-80.37,1.96-.32-.67-.58-1.37-.8-2.09h36.34c1.72,0,3.44-.32,5.13-.96,1.48.61,3.12.96,4.88.96h35.07c-.08.04-.17.08-.25.12Z"/><path d="M208.31,33.99h-17.28c-2.45,0-4.86.62-7.2,1.86-1.87-1.18-4.14-1.86-6.63-1.86h-17.28c-1.79,0-3.56.33-5.3,1-1.51-.64-3.19-1-5-1h-48.38c-1.75,0-3.47.32-5.15.95-1.47-.61-3.11-.95-4.86-.95h-9.71c1.29-.5,2.59-.99,3.92-1.45,16.44-5.67,35.44-8.77,48-11.1,2.65-.49,4.85-.47,4.85-.47.99.41,1.61,1.41,1.53,2.48l-.48,6.3c-.11,1.39,1.63,2.11,2.53,1.04l4.09-4.81c.7-.82,1.84-1.1,2.83-.69l5.84,2.41c1.29.53,2.51-.9,1.78-2.09l-2.86-4.65-.78-1.67c-.1-.69.09-1.41.56-1.97l4.09-4.81c.9-1.06-.08-2.66-1.44-2.33l-6.14,1.49c-1.04.25-2.13-.2-2.7-1.11l-3.31-5.38c-.73-1.19-2.56-.75-2.66.65l-.48,6.3c-.08,1.07-.85,1.97-1.89,2.22l-6.14,1.49c-.11.03-41.01,5.62-64,16.68-1.01.48-1.99.98-2.98,1.48h-22.83c-2.85,0-5.66.85-8.35,2.52-2.51,1.56-4.46,3.58-5.82,6l-17.96,31.03-.15.26c-1.13,2.09-1.7,4.27-1.7,6.47,0,.69.07,1.37.18,2.02-4.8,9.03-6,17.5-2.69,24.38,9.53,19.83,52.89,18.77,96.83-2.37,7.83-3.76,15.14-7.92,21.82-12.3h2.65c1.8,0,3.58-.34,5.32-1,1.5.64,3.18,1,4.98,1h17.29c2.44,0,4.84-.62,7.17-1.84,1.88,1.17,4.15,1.84,6.65,1.84h17.28c2.89,0,5.71-.87,8.4-2.57,2.37-1.51,4.27-3.44,5.65-5.74l7.96-13.89c1.09-1.82,1.73-3.72,1.91-5.66,1.67-1.31,3.04-2.87,4.1-4.65l4.06-7.08.13-.23c1.13-2.09,1.7-4.27,1.7-6.47,0-6.69-5.13-11.73-11.94-11.73ZM114.11,92.13c-36.47,17.54-72.46,18.42-80.37,1.96-.32-.67-.58-1.37-.8-2.09h36.34c1.72,0,3.44-.32,5.13-.96,1.48.61,3.12.96,4.88.96h35.07c-.08.04-.17.08-.25.12Z" style="fill:none; stroke:#000; stroke-miterlimit:10; stroke-width:3px;"/><path d="M207.31,32.99h-17.28c-2.45,0-4.86.62-7.2,1.86-1.87-1.18-4.14-1.86-6.63-1.86h-17.28c-1.79,0-3.56.33-5.3,1-1.51-.64-3.19-1-5-1h-48.38c-1.75,0-3.47.32-5.15.95-1.47-.61-3.11-.95-4.86-.95h-9.71c1.29-.5,2.59-.99,3.92-1.45,16.44-5.67,35.44-8.77,48-11.1,2.65-.49,4.85-.47,4.85-.47.99.41,1.61,1.41,1.53,2.48l-.48,6.3c-.11,1.39,1.63,2.11,2.53,1.04l4.09-4.81c.7-.82,1.84-1.1,2.83-.69l5.84,2.41c1.29.53,2.51-.9,1.78-2.09l-2.86-4.65-.78-1.67c-.1-.69.09-1.41.56-1.97l4.09-4.81c.9-1.06-.08-2.66-1.44-2.33l-6.14,1.49c-1.04.25-2.13-.2-2.7-1.11l-3.31-5.38c-.73-1.19-2.56-.75-2.66.65l-.48,6.3c-.08,1.07-.85,1.97-1.89,2.22l-6.14,1.49c-.11.03-41.01,5.62-64,16.68-1.01.48-1.99.98-2.98,1.48h-22.83c-2.85,0-5.66.85-8.35,2.52-2.51,1.56-4.46,3.58-5.82,6l-17.96,31.03-.15.26c-1.13,2.09-1.7,4.27-1.7,6.47,0,.69.07,1.37.18,2.02-4.8,9.03-6,17.5-2.69,24.38,9.53,19.83,52.89,18.77,96.83-2.37,7.83-3.76,15.14-7.92,21.82-12.3h2.65c1.8,0,3.58-.34,5.32-1,1.5.64,3.18,1,4.98,1h17.29c2.44,0,4.84-.62,7.17-1.84,1.88,1.17,4.15,1.84,6.65,1.84h17.28c2.89,0,5.71-.87,8.4-2.57,2.37-1.51,4.27-3.44,5.65-5.74l7.96-13.89c1.09-1.82,1.73-3.72,1.91-5.66,1.67-1.31,3.04-2.87,4.1-4.65l4.06-7.08.13-.23c1.13-2.09,1.7-4.27,1.7-6.47,0-6.69-5.13-11.73-11.94-11.73ZM113.11,91.13c-36.47,17.54-72.46,18.42-80.37,1.96-.32-.67-.58-1.37-.8-2.09h36.34c1.72,0,3.44-.32,5.13-.96,1.48.61,3.12.96,4.88.96h35.07c-.08.04-.17.08-.25.12Z"/><path d="M207.31,32.99h-17.28c-2.45,0-4.86.62-7.2,1.86-1.87-1.18-4.14-1.86-6.63-1.86h-17.28c-1.79,0-3.56.33-5.3,1-1.51-.64-3.19-1-5-1h-48.38c-1.75,0-3.47.32-5.15.95-1.47-.61-3.11-.95-4.86-.95h-9.71c1.29-.5,2.59-.99,3.92-1.45,16.44-5.67,35.44-8.77,48-11.1,2.65-.49,4.85-.47,4.85-.47.99.41,1.61,1.41,1.53,2.48l-.48,6.3c-.11,1.39,1.63,2.11,2.53,1.04l4.09-4.81c.7-.82,1.84-1.1,2.83-.69l5.84,2.41c1.29.53,2.51-.9,1.78-2.09l-2.86-4.65-.78-1.67c-.1-.69.09-1.41.56-1.97l4.09-4.81c.9-1.06-.08-2.66-1.44-2.33l-6.14,1.49c-1.04.25-2.13-.2-2.7-1.11l-3.31-5.38c-.73-1.19-2.56-.75-2.66.65l-.48,6.3c-.08,1.07-.85,1.97-1.89,2.22l-6.14,1.49c-.11.03-41.01,5.62-64,16.68-1.01.48-1.99.98-2.98,1.48h-22.83c-2.85,0-5.66.85-8.35,2.52-2.51,1.56-4.46,3.58-5.82,6l-17.96,31.03-.15.26c-1.13,2.09-1.7,4.27-1.7,6.47,0,.69.07,1.37.18,2.02-4.8,9.03-6,17.5-2.69,24.38,9.53,19.83,52.89,18.77,96.83-2.37,7.83-3.76,15.14-7.92,21.82-12.3h2.65c1.8,0,3.58-.34,5.32-1,1.5.64,3.18,1,4.98,1h17.29c2.44,0,4.84-.62,7.17-1.84,1.88,1.17,4.15,1.84,6.65,1.84h17.28c2.89,0,5.71-.87,8.4-2.57,2.37-1.51,4.27-3.44,5.65-5.74l7.96-13.89c1.09-1.82,1.73-3.72,1.91-5.66,1.67-1.31,3.04-2.87,4.1-4.65l4.06-7.08.13-.23c1.13-2.09,1.7-4.27,1.7-6.47,0-6.69-5.13-11.73-11.94-11.73ZM113.11,91.13c-36.47,17.54-72.46,18.42-80.37,1.96-.32-.67-.58-1.37-.8-2.09h36.34c1.72,0,3.44-.32,5.13-.96,1.48.61,3.12.96,4.88.96h35.07c-.08.04-.17.08-.25.12Z" style="fill:none; stroke:#000; stroke-miterlimit:10; stroke-width:3px;"/><path d="M206.31,31.99h-17.28c-2.45,0-4.86.62-7.2,1.86-1.87-1.18-4.14-1.86-6.63-1.86h-17.28c-1.79,0-3.56.33-5.3,1-1.51-.64-3.19-1-5-1h-48.38c-1.75,0-3.47.32-5.15.95-1.47-.61-3.11-.95-4.86-.95h-9.71c1.29-.5,2.59-.99,3.92-1.45,16.44-5.67,35.44-8.77,48-11.1,2.65-.49,4.85-.47,4.85-.47.99.41,1.61,1.41,1.53,2.48l-.48,6.3c-.11,1.39,1.63,2.11,2.53,1.04l4.09-4.81c.7-.82,1.84-1.1,2.83-.69l5.84,2.41c1.29.53,2.51-.9,1.78-2.09l-2.86-4.65-.78-1.67c-.1-.69.09-1.41.56-1.97l4.09-4.81c.9-1.06-.08-2.66-1.44-2.33l-6.14,1.49c-1.04.25-2.13-.2-2.7-1.11l-3.31-5.38c-.73-1.19-2.56-.75-2.66.65l-.48,6.3c-.08,1.07-.85,1.97-1.89,2.22l-6.14,1.49c-.11.03-41.01,5.62-64,16.68-1.01.48-1.99.98-2.98,1.48h-22.83c-2.85,0-5.66.85-8.35,2.52-2.51,1.56-4.46,3.58-5.82,6l-17.96,31.03-.15.26c-1.13,2.09-1.7,4.27-1.7,6.47,0,.69.07,1.37.18,2.02-4.8,9.03-6,17.5-2.69,24.38,9.53,19.83,52.89,18.77,96.83-2.37,7.83-3.76,15.14-7.92,21.82-12.3h2.65c1.8,0,3.58-.34,5.32-1,1.5.64,3.18,1,4.98,1h17.29c2.44,0,4.84-.62,7.17-1.84,1.88,1.17,4.15,1.84,6.65,1.84h17.28c2.89,0,5.71-.87,8.4-2.57,2.37-1.51,4.27-3.44,5.65-5.74l7.96-13.89c1.09-1.82,1.73-3.72,1.91-5.66,1.67-1.31,3.04-2.87,4.1-4.65l4.06-7.08.13-.23c1.13-2.09,1.7-4.27,1.7-6.47,0-6.69-5.13-11.73-11.94-11.73ZM112.11,90.13c-36.47,17.54-72.46,18.42-80.37,1.96-.32-.67-.58-1.37-.8-2.09h36.34c1.72,0,3.44-.32,5.13-.96,1.48.61,3.12.96,4.88.96h35.07c-.08.04-.17.08-.25.12Z"/><path d="M206.31,31.99h-17.28c-2.45,0-4.86.62-7.2,1.86-1.87-1.18-4.14-1.86-6.63-1.86h-17.28c-1.79,0-3.56.33-5.3,1-1.51-.64-3.19-1-5-1h-48.38c-1.75,0-3.47.32-5.15.95-1.47-.61-3.11-.95-4.86-.95h-9.71c1.29-.5,2.59-.99,3.92-1.45,16.44-5.67,35.44-8.77,48-11.1,2.65-.49,4.85-.47,4.85-.47.99.41,1.61,1.41,1.53,2.48l-.48,6.3c-.11,1.39,1.63,2.11,2.53,1.04l4.09-4.81c.7-.82,1.84-1.1,2.83-.69l5.84,2.41c1.29.53,2.51-.9,1.78-2.09l-2.86-4.65-.78-1.67c-.1-.69.09-1.41.56-1.97l4.09-4.81c.9-1.06-.08-2.66-1.44-2.33l-6.14,1.49c-1.04.25-2.13-.2-2.7-1.11l-3.31-5.38c-.73-1.19-2.56-.75-2.66.65l-.48,6.3c-.08,1.07-.85,1.97-1.89,2.22l-6.14,1.49c-.11.03-41.01,5.62-64,16.68-1.01.48-1.99.98-2.98,1.48h-22.83c-2.85,0-5.66.85-8.35,2.52-2.51,1.56-4.46,3.58-5.82,6l-17.96,31.03-.15.26c-1.13,2.09-1.7,4.27-1.7,6.47,0,.69.07,1.37.18,2.02-4.8,9.03-6,17.5-2.69,24.38,9.53,19.83,52.89,18.77,96.83-2.37,7.83-3.76,15.14-7.92,21.82-12.3h2.65c1.8,0,3.58-.34,5.32-1,1.5.64,3.18,1,4.98,1h17.29c2.44,0,4.84-.62,7.17-1.84,1.88,1.17,4.15,1.84,6.65,1.84h17.28c2.89,0,5.71-.87,8.4-2.57,2.37-1.51,4.27-3.44,5.65-5.74l7.96-13.89c1.09-1.82,1.73-3.72,1.91-5.66,1.67-1.31,3.04-2.87,4.1-4.65l4.06-7.08.13-.23c1.13-2.09,1.7-4.27,1.7-6.47,0-6.69-5.13-11.73-11.94-11.73ZM112.11,90.13c-36.47,17.54-72.46,18.42-80.37,1.96-.32-.67-.58-1.37-.8-2.09h36.34c1.72,0,3.44-.32,5.13-.96,1.48.61,3.12.96,4.88.96h35.07c-.08.04-.17.08-.25.12Z" style="fill:none; stroke:#000; stroke-miterlimit:10; stroke-width:3px;"/><path d="M205.31,30.99h-17.28c-2.45,0-4.86.62-7.2,1.86-1.87-1.18-4.14-1.86-6.63-1.86h-17.28c-1.79,0-3.56.33-5.3,1-1.51-.64-3.19-1-5-1h-48.38c-1.75,0-3.47.32-5.15.95-1.47-.61-3.11-.95-4.86-.95h-9.71c1.29-.5,2.59-.99,3.92-1.45,16.44-5.67,35.44-8.77,48-11.1,2.65-.49,4.85-.47,4.85-.47.99.41,1.61,1.41,1.53,2.48l-.48,6.3c-.11,1.39,1.63,2.11,2.53,1.04l4.09-4.81c.7-.82,1.84-1.1,2.83-.69l5.84,2.41c1.29.53,2.51-.9,1.78-2.09l-2.86-4.65-.78-1.67c-.1-.69.09-1.41.56-1.97l4.09-4.81c.9-1.06-.08-2.66-1.44-2.33l-6.14,1.49c-1.04.25-2.13-.2-2.7-1.11l-3.31-5.38c-.73-1.19-2.56-.75-2.66.65l-.48,6.3c-.08,1.07-.85,1.97-1.89,2.22l-6.14,1.49c-.11.03-41.01,5.62-64,16.68-1.01.48-1.99.98-2.98,1.48h-22.83c-2.85,0-5.66.85-8.35,2.52-2.51,1.56-4.46,3.58-5.82,6l-17.96,31.03-.15.26c-1.13,2.09-1.7,4.27-1.7,6.47,0,.69.07,1.37.18,2.02C1.26,88.33.06,96.81,3.37,103.68c9.53,19.83,52.89,18.77,96.83-2.37,7.83-3.76,15.14-7.92,21.82-12.3h2.65c1.8,0,3.58-.34,5.32-1,1.5.64,3.18,1,4.98,1h17.29c2.44,0,4.84-.62,7.17-1.84,1.88,1.17,4.15,1.84,6.65,1.84h17.28c2.89,0,5.71-.87,8.4-2.57,2.37-1.51,4.27-3.44,5.65-5.74l7.96-13.89c1.09-1.82,1.73-3.72,1.91-5.66,1.67-1.31,3.04-2.87,4.1-4.65l4.06-7.08.13-.23c1.13-2.09,1.7-4.27,1.7-6.47,0-6.69-5.13-11.73-11.94-11.73ZM111.11,89.13c-36.47,17.54-72.46,18.42-80.37,1.96-.32-.67-.58-1.37-.8-2.09h36.34c1.72,0,3.44-.32,5.13-.96,1.48.61,3.12.96,4.88.96h35.07c-.08.04-.17.08-.25.12Z"/><path d="M205.31,30.99h-17.28c-2.45,0-4.86.62-7.2,1.86-1.87-1.18-4.14-1.86-6.63-1.86h-17.28c-1.79,0-3.56.33-5.3,1-1.51-.64-3.19-1-5-1h-48.38c-1.75,0-3.47.32-5.15.95-1.47-.61-3.11-.95-4.86-.95h-9.71c1.29-.5,2.59-.99,3.92-1.45,16.44-5.67,35.44-8.77,48-11.1,2.65-.49,4.85-.47,4.85-.47.99.41,1.61,1.41,1.53,2.48l-.48,6.3c-.11,1.39,1.63,2.11,2.53,1.04l4.09-4.81c.7-.82,1.84-1.1,2.83-.69l5.84,2.41c1.29.53,2.51-.9,1.78-2.09l-2.86-4.65-.78-1.67c-.1-.69.09-1.41.56-1.97l4.09-4.81c.9-1.06-.08-2.66-1.44-2.33l-6.14,1.49c-1.04.25-2.13-.2-2.7-1.11l-3.31-5.38c-.73-1.19-2.56-.75-2.66.65l-.48,6.3c-.08,1.07-.85,1.97-1.89,2.22l-6.14,1.49c-.11.03-41.01,5.62-64,16.68-1.01.48-1.99.98-2.98,1.48h-22.83c-2.85,0-5.66.85-8.35,2.52-2.51,1.56-4.46,3.58-5.82,6l-17.96,31.03-.15.26c-1.13,2.09-1.7,4.27-1.7,6.47,0,.69.07,1.37.18,2.02C1.26,88.33.06,96.81,3.37,103.68c9.53,19.83,52.89,18.77,96.83-2.37,7.83-3.76,15.14-7.92,21.82-12.3h2.65c1.8,0,3.58-.34,5.32-1,1.5.64,3.18,1,4.98,1h17.29c2.44,0,4.84-.62,7.17-1.84,1.88,1.17,4.15,1.84,6.65,1.84h17.28c2.89,0,5.71-.87,8.4-2.57,2.37-1.51,4.27-3.44,5.65-5.74l7.96-13.89c1.09-1.82,1.73-3.72,1.91-5.66,1.67-1.31,3.04-2.87,4.1-4.65l4.06-7.08.13-.23c1.13-2.09,1.7-4.27,1.7-6.47,0-6.69-5.13-11.73-11.94-11.73ZM111.11,89.13c-36.47,17.54-72.46,18.42-80.37,1.96-.32-.67-.58-1.37-.8-2.09h36.34c1.72,0,3.44-.32,5.13-.96,1.48.61,3.12.96,4.88.96h35.07c-.08.04-.17.08-.25.12Z" style="fill:none; stroke:#000; stroke-miterlimit:10; stroke-width:3px;"/><path d="M220.42,44.19l-1.5-6.5c-.29-1.24-1.26-2.22-2.5-2.5l-6.5-1.5c-2.17-.5-2.17-3.58,0-4.08l6.5-1.5c1.24-.29,2.22-1.26,2.5-2.5l1.5-6.5c.5-2.17,3.58-2.17,4.08,0l1.5,6.5c.29,1.24,1.26,2.22,2.5,2.5l6.5,1.5c2.17.5,2.17,3.58,0,4.08l-6.5,1.5c-1.24.29-2.22,1.26-2.5,2.5l-1.5,6.5c-.5,2.17-3.58,2.17-4.08,0Z" style="fill:#fff; stroke:#000; stroke-linecap:round; stroke-linejoin:round; stroke-width:4px;"/><path d="M231.1,29.27l-1.14-3.37c-.28-.82-.92-1.46-1.73-1.73l-3.37-1.14c-.56-.19-.56-.98,0-1.17l3.37-1.14c.82-.28,1.46-.92,1.73-1.73l1.14-3.37c.19-.56.98-.56,1.17,0l1.14,3.37c.28.82.92,1.46,1.73,1.73l3.37,1.14c.56.19.56.98,0,1.17l-3.37,1.14c-.82.28-1.46.92-1.73,1.73l-1.14,3.37c-.19.56-.98.56-1.17,0Z" style="stroke:#000; stroke-linecap:round; stroke-linejoin:round; stroke-width:4px;"/><path d="M220.32,44.09l-1.5-6.5c-.29-1.24-1.26-2.22-2.5-2.5l-6.5-1.5c-2.17-.5-2.17-3.58,0-4.08l6.5-1.5c1.24-.29,2.22-1.26,2.5-2.5l1.5-6.5c.5-2.17,3.58-2.17,4.08,0l1.5,6.5c.29,1.24,1.26,2.22,2.5,2.5l6.5,1.5c2.17.5,2.17,3.58,0,4.08l-6.5,1.5c-1.24.29-2.22,1.26-2.5,2.5l-1.5,6.5c-.5,2.17-3.58,2.17-4.08,0Z" style="fill:#fff; stroke:#000; stroke-linecap:round; stroke-linejoin:round; stroke-width:4px;"/><path d="M231,29.17l-1.14-3.37c-.28-.82-.92-1.46-1.73-1.73l-3.37-1.14c-.56-.19-.56-.98,0-1.17l3.37-1.14c.82-.28,1.46-.92,1.73-1.73l1.14-3.37c.19-.56.98-.56,1.17,0l1.14,3.37c.28.82.92,1.46,1.73,1.73l3.37,1.14c.56.19.56.98,0,1.17l-3.37,1.14c-.82.28-1.46.92-1.73,1.73l-1.14,3.37c-.19.56-.98.56-1.17,0Z" style="stroke:#000; stroke-linecap:round; stroke-linejoin:round; stroke-width:4px;"/><path d="M220.22,43.99l-1.5-6.5c-.29-1.24-1.26-2.22-2.5-2.5l-6.5-1.5c-2.17-.5-2.17-3.58,0-4.08l6.5-1.5c1.24-.29,2.22-1.26,2.5-2.5l1.5-6.5c.5-2.17,3.58-2.17,4.08,0l1.5,6.5c.29,1.24,1.26,2.22,2.5,2.5l6.5,1.5c2.17.5,2.17,3.58,0,4.08l-6.5,1.5c-1.24.29-2.22,1.26-2.5,2.5l-1.5,6.5c-.5,2.17-3.58,2.17-4.08,0Z" style="fill:#fff; stroke:#000; stroke-linecap:round; stroke-linejoin:round; stroke-width:4px;"/><path d="M230.9,29.07l-1.14-3.37c-.28-.82-.92-1.46-1.73-1.73l-3.37-1.14c-.56-.19-.56-.98,0-1.17l3.37-1.14c.82-.28,1.46-.92,1.73-1.73l1.14-3.37c.19-.56.98-.56,1.17,0l1.14,3.37c.28.82.92,1.46,1.73,1.73l3.37,1.14c.56.19.56.98,0,1.17l-3.37,1.14c-.82.28-1.46.92-1.73,1.73l-1.14,3.37c-.19.56-.98.56-1.17,0Z" style="stroke:#000; stroke-linecap:round; stroke-linejoin:round; stroke-width:4px;"/><path d="M220.12,43.89l-1.5-6.5c-.29-1.24-1.26-2.22-2.5-2.5l-6.5-1.5c-2.17-.5-2.17-3.58,0-4.08l6.5-1.5c1.24-.29,2.22-1.26,2.5-2.5l1.5-6.5c.5-2.17,3.58-2.17,4.08,0l1.5,6.5c.29,1.24,1.26,2.22,2.5,2.5l6.5,1.5c2.17.5,2.17,3.58,0,4.08l-6.5,1.5c-1.24.29-2.22,1.26-2.5,2.5l-1.5,6.5c-.5,2.17-3.58,2.17-4.08,0Z" style="fill:#fff; stroke:#000; stroke-linecap:round; stroke-linejoin:round; stroke-width:4px;"/><path d="M230.8,28.97l-1.14-3.37c-.28-.82-.92-1.46-1.73-1.73l-3.37-1.14c-.56-.19-.56-.98,0-1.17l3.37-1.14c.82-.28,1.46-.92,1.73-1.73l1.14-3.37c.19-.56.98-.56,1.17,0l1.14,3.37c.28.82.92,1.46,1.73,1.73l3.37,1.14c.56.19.56.98,0,1.17l-3.37,1.14c-.82.28-1.46.92-1.73,1.73l-1.14,3.37c-.19.56-.98.56-1.17,0Z" style="stroke:#000; stroke-linecap:round; stroke-linejoin:round; stroke-width:4px;"/><path d="M220.02,43.79l-1.5-6.5c-.29-1.24-1.26-2.22-2.5-2.5l-6.5-1.5c-2.17-.5-2.17-3.58,0-4.08l6.5-1.5c1.24-.29,2.22-1.26,2.5-2.5l1.5-6.5c.5-2.17,3.58-2.17,4.08,0l1.5,6.5c.29,1.24,1.26,2.22,2.5,2.5l6.5,1.5c2.17.5,2.17,3.58,0,4.08l-6.5,1.5c-1.24.29-2.22,1.26-2.5,2.5l-1.5,6.5c-.5,2.17-3.58,2.17-4.08,0Z" style="fill:#fff; stroke:#000; stroke-linecap:round; stroke-linejoin:round; stroke-width:4px;"/><path d="M230.7,28.87l-1.14-3.37c-.28-.82-.92-1.46-1.73-1.73l-3.37-1.14c-.56-.19-.56-.98,0-1.17l3.37-1.14c.82-.28,1.46-.92,1.73-1.73l1.14-3.37c.19-.56.98-.56,1.17,0l1.14,3.37c.28.82.92,1.46,1.73,1.73l3.37,1.14c.56.19.56.98,0,1.17l-3.37,1.14c-.82.28-1.46.92-1.73,1.73l-1.14,3.37c-.19.56-.98.56-1.17,0Z" style="stroke:#000; stroke-linecap:round; stroke-linejoin:round; stroke-width:4px;"/><path d="M219.92,43.69l-1.5-6.5c-.29-1.24-1.26-2.22-2.5-2.5l-6.5-1.5c-2.17-.5-2.17-3.58,0-4.08l6.5-1.5c1.24-.29,2.22-1.26,2.5-2.5l1.5-6.5c.5-2.17,3.58-2.17,4.08,0l1.5,6.5c.29,1.24,1.26,2.22,2.5,2.5l6.5,1.5c2.17.5,2.17,3.58,0,4.08l-6.5,1.5c-1.24.29-2.22,1.26-2.5,2.5l-1.5,6.5c-.5,2.17-3.58,2.17-4.08,0Z" style="fill:#fff; stroke:#000; stroke-linecap:round; stroke-linejoin:round; stroke-width:4px;"/><path d="M230.6,28.77l-1.14-3.37c-.28-.82-.92-1.46-1.73-1.73l-3.37-1.14c-.56-.19-.56-.98,0-1.17l3.37-1.14c.82-.28,1.46-.92,1.73-1.73l1.14-3.37c.19-.56.98-.56,1.17,0l1.14,3.37c.28.82.92,1.46,1.73,1.73l3.37,1.14c.56.19.56.98,0,1.17l-3.37,1.14c-.82.28-1.46.92-1.73,1.73l-1.14,3.37c-.19.56-.98.56-1.17,0Z" style="stroke:#000; stroke-linecap:round; stroke-linejoin:round; stroke-width:4px;"/><path d="M219.82,43.59l-1.5-6.5c-.29-1.24-1.26-2.22-2.5-2.5l-6.5-1.5c-2.17-.5-2.17-3.58,0-4.08l6.5-1.5c1.24-.29,2.22-1.26,2.5-2.5l1.5-6.5c.5-2.17,3.58-2.17,4.08,0l1.5,6.5c.29,1.24,1.26,2.22,2.5,2.5l6.5,1.5c2.17.5,2.17,3.58,0,4.08l-6.5,1.5c-1.24.29-2.22,1.26-2.5,2.5l-1.5,6.5c-.5,2.17-3.58,2.17-4.08,0Z" style="fill:#fff; stroke:#000; stroke-linecap:round; stroke-linejoin:round; stroke-width:4px;"/><path d="M230.5,28.67l-1.14-3.37c-.28-.82-.92-1.46-1.73-1.73l-3.37-1.14c-.56-.19-.56-.98,0-1.17l3.37-1.14c.82-.28,1.46-.92,1.73-1.73l1.14-3.37c.19-.56.98-.56,1.17,0l1.14,3.37c.28.82.92,1.46,1.73,1.73l3.37,1.14c.56.19.56.98,0,1.17l-3.37,1.14c-.82.28-1.46.92-1.73,1.73l-1.14,3.37c-.19.56-.98.56-1.17,0Z" style="stroke:#000; stroke-linecap:round; stroke-linejoin:round; stroke-width:4px;"/><path d="M219.72,43.49l-1.5-6.5c-.29-1.24-1.26-2.22-2.5-2.5l-6.5-1.5c-2.17-.5-2.17-3.58,0-4.08l6.5-1.5c1.24-.29,2.22-1.26,2.5-2.5l1.5-6.5c.5-2.17,3.58-2.17,4.08,0l1.5,6.5c.29,1.24,1.26,2.22,2.5,2.5l6.5,1.5c2.17.5,2.17,3.58,0,4.08l-6.5,1.5c-1.24.29-2.22,1.26-2.5,2.5l-1.5,6.5c-.5,2.17-3.58,2.17-4.08,0Z" style="fill:#fff; stroke:#000; stroke-linecap:round; stroke-linejoin:round; stroke-width:4px;"/><path d="M230.4,28.57l-1.14-3.37c-.28-.82-.92-1.46-1.73-1.73l-3.37-1.14c-.56-.19-.56-.98,0-1.17l3.37-1.14c.82-.28,1.46-.92,1.73-1.73l1.14-3.37c.19-.56.98-.56,1.17,0l1.14,3.37c.28.82.92,1.46,1.73,1.73l3.37,1.14c.56.19.56.98,0,1.17l-3.37,1.14c-.82.28-1.46.92-1.73,1.73l-1.14,3.37c-.19.56-.98.56-1.17,0Z" style="stroke:#000; stroke-linecap:round; stroke-linejoin:round; stroke-width:4px;"/><path d="M219.62,43.39l-1.5-6.5c-.29-1.24-1.26-2.22-2.5-2.5l-6.5-1.5c-2.17-.5-2.17-3.58,0-4.08l6.5-1.5c1.24-.29,2.22-1.26,2.5-2.5l1.5-6.5c.5-2.17,3.58-2.17,4.08,0l1.5,6.5c.29,1.24,1.26,2.22,2.5,2.5l6.5,1.5c2.17.5,2.17,3.58,0,4.08l-6.5,1.5c-1.24.29-2.22,1.26-2.5,2.5l-1.5,6.5c-.5,2.17-3.58,2.17-4.08,0Z" style="fill:#fff; stroke:#000; stroke-linecap:round; stroke-linejoin:round; stroke-width:4px;"/><path d="M230.3,28.47l-1.14-3.37c-.28-.82-.92-1.46-1.73-1.73l-3.37-1.14c-.56-.19-.56-.98,0-1.17l3.37-1.14c.82-.28,1.46-.92,1.73-1.73l1.14-3.37c.19-.56.98-.56,1.17,0l1.14,3.37c.28.82.92,1.46,1.73,1.73l3.37,1.14c.56.19.56.98,0,1.17l-3.37,1.14c-.82.28-1.46.92-1.73,1.73l-1.14,3.37c-.19.56-.98.56-1.17,0Z" style="stroke:#000; stroke-linecap:round; stroke-linejoin:round; stroke-width:4px;"/><path d="M219.52,43.29l-1.5-6.5c-.29-1.24-1.26-2.22-2.5-2.5l-6.5-1.5c-2.17-.5-2.17-3.58,0-4.08l6.5-1.5c1.24-.29,2.22-1.26,2.5-2.5l1.5-6.5c.5-2.17,3.58-2.17,4.08,0l1.5,6.5c.29,1.24,1.26,2.22,2.5,2.5l6.5,1.5c2.17.5,2.17,3.58,0,4.08l-6.5,1.5c-1.24.29-2.22,1.26-2.5,2.5l-1.5,6.5c-.5,2.17-3.58,2.17-4.08,0Z" style="fill:#fff; stroke:#000; stroke-linecap:round; stroke-linejoin:round; stroke-width:4px;"/><path d="M230.2,28.37l-1.14-3.37c-.28-.82-.92-1.46-1.73-1.73l-3.37-1.14c-.56-.19-.56-.98,0-1.17l3.37-1.14c.82-.28,1.46-.92,1.73-1.73l1.14-3.37c.19-.56.98-.56,1.17,0l1.14,3.37c.28.82.92,1.46,1.73,1.73l3.37,1.14c.56.19.56.98,0,1.17l-3.37,1.14c-.82.28-1.46.92-1.73,1.73l-1.14,3.37c-.19.56-.98.56-1.17,0Z" style="stroke:#000; stroke-linecap:round; stroke-linejoin:round; stroke-width:4px;"/><path d="M219.42,43.19l-1.5-6.5c-.29-1.24-1.26-2.22-2.5-2.5l-6.5-1.5c-2.17-.5-2.17-3.58,0-4.08l6.5-1.5c1.24-.29,2.22-1.26,2.5-2.5l1.5-6.5c.5-2.17,3.58-2.17,4.08,0l1.5,6.5c.29,1.24,1.26,2.22,2.5,2.5l6.5,1.5c2.17.5,2.17,3.58,0,4.08l-6.5,1.5c-1.24.29-2.22,1.26-2.5,2.5l-1.5,6.5c-.5,2.17-3.58,2.17-4.08,0Z" style="fill:#fff; stroke:#000; stroke-linecap:round; stroke-linejoin:round; stroke-width:4px;"/><path d="M230.1,28.27l-1.14-3.37c-.28-.82-.92-1.46-1.73-1.73l-3.37-1.14c-.56-.19-.56-.98,0-1.17l3.37-1.14c.82-.28,1.46-.92,1.73-1.73l1.14-3.37c.19-.56.98-.56,1.17,0l1.14,3.37c.28.82.92,1.46,1.73,1.73l3.37,1.14c.56.19.56.98,0,1.17l-3.37,1.14c-.82.28-1.46.92-1.73,1.73l-1.14,3.37c-.19.56-.98.56-1.17,0Z" style="stroke:#000; stroke-linecap:round; stroke-linejoin:round; stroke-width:4px;"/><path d="M219.32,43.09l-1.5-6.5c-.29-1.24-1.26-2.22-2.5-2.5l-6.5-1.5c-2.17-.5-2.17-3.58,0-4.08l6.5-1.5c1.24-.29,2.22-1.26,2.5-2.5l1.5-6.5c.5-2.17,3.58-2.17,4.08,0l1.5,6.5c.29,1.24,1.26,2.22,2.5,2.5l6.5,1.5c2.17.5,2.17,3.58,0,4.08l-6.5,1.5c-1.24.29-2.22,1.26-2.5,2.5l-1.5,6.5c-.5,2.17-3.58,2.17-4.08,0Z" style="fill:#fff; stroke:#000; stroke-linecap:round; stroke-linejoin:round; stroke-width:4px;"/><path d="M230,28.17l-1.14-3.37c-.28-.82-.92-1.46-1.73-1.73l-3.37-1.14c-.56-.19-.56-.98,0-1.17l3.37-1.14c.82-.28,1.46-.92,1.73-1.73l1.14-3.37c.19-.56.98-.56,1.17,0l1.14,3.37c.28.82.92,1.46,1.73,1.73l3.37,1.14c.56.19.56.98,0,1.17l-3.37,1.14c-.82.28-1.46.92-1.73,1.73l-1.14,3.37c-.19.56-.98.56-1.17,0Z" style="stroke:#000; stroke-linecap:round; stroke-linejoin:round; stroke-width:4px;"/><path d="M219.22,42.99l-1.5-6.5c-.29-1.24-1.26-2.22-2.5-2.5l-6.5-1.5c-2.17-.5-2.17-3.58,0-4.08l6.5-1.5c1.24-.29,2.22-1.26,2.5-2.5l1.5-6.5c.5-2.17,3.58-2.17,4.08,0l1.5,6.5c.29,1.24,1.26,2.22,2.5,2.5l6.5,1.5c2.17.5,2.17,3.58,0,4.08l-6.5,1.5c-1.24.29-2.22,1.26-2.5,2.5l-1.5,6.5c-.5,2.17-3.58,2.17-4.08,0Z" style="fill:#fff; stroke:#000; stroke-linecap:round; stroke-linejoin:round; stroke-width:4px;"/><path d="M229.9,28.07l-1.14-3.37c-.28-.82-.92-1.46-1.73-1.73l-3.37-1.14c-.56-.19-.56-.98,0-1.17l3.37-1.14c.82-.28,1.46-.92,1.73-1.73l1.14-3.37c.19-.56.98-.56,1.17,0l1.14,3.37c.28.82.92,1.46,1.73,1.73l3.37,1.14c.56.19.56.98,0,1.17l-3.37,1.14c-.82.28-1.46.92-1.73,1.73l-1.14,3.37c-.19.56-.98.56-1.17,0Z" style="stroke:#000; stroke-linecap:round; stroke-linejoin:round; stroke-width:4px;"/><path d="M219.12,42.89l-1.5-6.5c-.29-1.24-1.26-2.22-2.5-2.5l-6.5-1.5c-2.17-.5-2.17-3.58,0-4.08l6.5-1.5c1.24-.29,2.22-1.26,2.5-2.5l1.5-6.5c.5-2.17,3.58-2.17,4.08,0l1.5,6.5c.29,1.24,1.26,2.22,2.5,2.5l6.5,1.5c2.17.5,2.17,3.58,0,4.08l-6.5,1.5c-1.24.29-2.22,1.26-2.5,2.5l-1.5,6.5c-.5,2.17-3.58,2.17-4.08,0Z" style="fill:#fff; stroke:#000; stroke-linecap:round; stroke-linejoin:round; stroke-width:4px;"/><path d="M229.8,27.97l-1.14-3.37c-.28-.82-.92-1.46-1.73-1.73l-3.37-1.14c-.56-.19-.56-.98,0-1.17l3.37-1.14c.82-.28,1.46-.92,1.73-1.73l1.14-3.37c.19-.56.98-.56,1.17,0l1.14,3.37c.28.82.92,1.46,1.73,1.73l3.37,1.14c.56.19.56.98,0,1.17l-3.37,1.14c-.82.28-1.46.92-1.73,1.73l-1.14,3.37c-.19.56-.98.56-1.17,0Z" style="stroke:#000; stroke-linecap:round; stroke-linejoin:round; stroke-width:4px;"/><path d="M219.02,42.79l-1.5-6.5c-.29-1.24-1.26-2.22-2.5-2.5l-6.5-1.5c-2.17-.5-2.17-3.58,0-4.08l6.5-1.5c1.24-.29,2.22-1.26,2.5-2.5l1.5-6.5c.5-2.17,3.58-2.17,4.08,0l1.5,6.5c.29,1.24,1.26,2.22,2.5,2.5l6.5,1.5c2.17.5,2.17,3.58,0,4.08l-6.5,1.5c-1.24.29-2.22,1.26-2.5,2.5l-1.5,6.5c-.5,2.17-3.58,2.17-4.08,0Z" style="fill:#fff; stroke:#000; stroke-linecap:round; stroke-linejoin:round; stroke-width:4px;"/><path d="M229.7,27.87l-1.14-3.37c-.28-.82-.92-1.46-1.73-1.73l-3.37-1.14c-.56-.19-.56-.98,0-1.17l3.37-1.14c.82-.28,1.46-.92,1.73-1.73l1.14-3.37c.19-.56.98-.56,1.17,0l1.14,3.37c.28.82.92,1.46,1.73,1.73l3.37,1.14c.56.19.56.98,0,1.17l-3.37,1.14c-.82.28-1.46.92-1.73,1.73l-1.14,3.37c-.19.56-.98.56-1.17,0Z" style="stroke:#000; stroke-linecap:round; stroke-linejoin:round; stroke-width:4px;"/><path d="M218.92,42.69l-1.5-6.5c-.29-1.24-1.26-2.22-2.5-2.5l-6.5-1.5c-2.17-.5-2.17-3.58,0-4.08l6.5-1.5c1.24-.29,2.22-1.26,2.5-2.5l1.5-6.5c.5-2.17,3.58-2.17,4.08,0l1.5,6.5c.29,1.24,1.26,2.22,2.5,2.5l6.5,1.5c2.17.5,2.17,3.58,0,4.08l-6.5,1.5c-1.24.29-2.22,1.26-2.5,2.5l-1.5,6.5c-.5,2.17-3.58,2.17-4.08,0Z" style="fill:#fff; stroke:#000; stroke-linecap:round; stroke-linejoin:round; stroke-width:4px;"/><path d="M229.6,27.77l-1.14-3.37c-.28-.82-.92-1.46-1.73-1.73l-3.37-1.14c-.56-.19-.56-.98,0-1.17l3.37-1.14c.82-.28,1.46-.92,1.73-1.73l1.14-3.37c.19-.56.98-.56,1.17,0l1.14,3.37c.28.82.92,1.46,1.73,1.73l3.37,1.14c.56.19.56.98,0,1.17l-3.37,1.14c-.82.28-1.46.92-1.73,1.73l-1.14,3.37c-.19.56-.98.56-1.17,0Z" style="stroke:#000; stroke-linecap:round; stroke-linejoin:round; stroke-width:4px;"/><path d="M218.82,42.59l-1.5-6.5c-.29-1.24-1.26-2.22-2.5-2.5l-6.5-1.5c-2.17-.5-2.17-3.58,0-4.08l6.5-1.5c1.24-.29,2.22-1.26,2.5-2.5l1.5-6.5c.5-2.17,3.58-2.17,4.08,0l1.5,6.5c.29,1.24,1.26,2.22,2.5,2.5l6.5,1.5c2.17.5,2.17,3.58,0,4.08l-6.5,1.5c-1.24.29-2.22,1.26-2.5,2.5l-1.5,6.5c-.5,2.17-3.58,2.17-4.08,0Z" style="fill:#fff; stroke:#000; stroke-linecap:round; stroke-linejoin:round; stroke-width:4px;"/><path d="M229.5,27.67l-1.14-3.37c-.28-.82-.92-1.46-1.73-1.73l-3.37-1.14c-.56-.19-.56-.98,0-1.17l3.37-1.14c.82-.28,1.46-.92,1.73-1.73l1.14-3.37c.19-.56.98-.56,1.17,0l1.14,3.37c.28.82.92,1.46,1.73,1.73l3.37,1.14c.56.19.56.98,0,1.17l-3.37,1.14c-.82.28-1.46.92-1.73,1.73l-1.14,3.37c-.19.56-.98.56-1.17,0Z" style="stroke:#000; stroke-linecap:round; stroke-linejoin:round; stroke-width:4px;"/><path d="M218.72,42.49l-1.5-6.5c-.29-1.24-1.26-2.22-2.5-2.5l-6.5-1.5c-2.17-.5-2.17-3.58,0-4.08l6.5-1.5c1.24-.29,2.22-1.26,2.5-2.5l1.5-6.5c.5-2.17,3.58-2.17,4.08,0l1.5,6.5c.29,1.24,1.26,2.22,2.5,2.5l6.5,1.5c2.17.5,2.17,3.58,0,4.08l-6.5,1.5c-1.24.29-2.22,1.26-2.5,2.5l-1.5,6.5c-.5,2.17-3.58,2.17-4.08,0Z" style="fill:#fff; stroke:#000; stroke-linecap:round; stroke-linejoin:round; stroke-width:4px;"/><path d="M229.4,27.57l-1.14-3.37c-.28-.82-.92-1.46-1.73-1.73l-3.37-1.14c-.56-.19-.56-.98,0-1.17l3.37-1.14c.82-.28,1.46-.92,1.73-1.73l1.14-3.37c.19-.56.98-.56,1.17,0l1.14,3.37c.28.82.92,1.46,1.73,1.73l3.37,1.14c.56.19.56.98,0,1.17l-3.37,1.14c-.82.28-1.46.92-1.73,1.73l-1.14,3.37c-.19.56-.98.56-1.17,0Z" style="stroke:#000; stroke-linecap:round; stroke-linejoin:round; stroke-width:4px;"/><path d="M218.62,42.39l-1.5-6.5c-.29-1.24-1.26-2.22-2.5-2.5l-6.5-1.5c-2.17-.5-2.17-3.58,0-4.08l6.5-1.5c1.24-.29,2.22-1.26,2.5-2.5l1.5-6.5c.5-2.17,3.58-2.17,4.08,0l1.5,6.5c.29,1.24,1.26,2.22,2.5,2.5l6.5,1.5c2.17.5,2.17,3.58,0,4.08l-6.5,1.5c-1.24.29-2.22,1.26-2.5,2.5l-1.5,6.5c-.5,2.17-3.58,2.17-4.08,0Z" style="fill:#fff; stroke:#000; stroke-linecap:round; stroke-linejoin:round; stroke-width:4px;"/><path d="M229.3,27.47l-1.14-3.37c-.28-.82-.92-1.46-1.73-1.73l-3.37-1.14c-.56-.19-.56-.98,0-1.17l3.37-1.14c.82-.28,1.46-.92,1.73-1.73l1.14-3.37c.19-.56.98-.56,1.17,0l1.14,3.37c.28.82.92,1.46,1.73,1.73l3.37,1.14c.56.19.56.98,0,1.17l-3.37,1.14c-.82.28-1.46.92-1.73,1.73l-1.14,3.37c-.19.56-.98.56-1.17,0Z" style="stroke:#000; stroke-linecap:round; stroke-linejoin:round; stroke-width:4px;"/><path d="M218.52,42.29l-1.5-6.5c-.29-1.24-1.26-2.22-2.5-2.5l-6.5-1.5c-2.17-.5-2.17-3.58,0-4.08l6.5-1.5c1.24-.29,2.22-1.26,2.5-2.5l1.5-6.5c.5-2.17,3.58-2.17,4.08,0l1.5,6.5c.29,1.24,1.26,2.22,2.5,2.5l6.5,1.5c2.17.5,2.17,3.58,0,4.08l-6.5,1.5c-1.24.29-2.22,1.26-2.5,2.5l-1.5,6.5c-.5,2.17-3.58,2.17-4.08,0Z" style="fill:#fff; stroke:#000; stroke-linecap:round; stroke-linejoin:round; stroke-width:4px;"/><path d="M229.2,27.37l-1.14-3.37c-.28-.82-.92-1.46-1.73-1.73l-3.37-1.14c-.56-.19-.56-.98,0-1.17l3.37-1.14c.82-.28,1.46-.92,1.73-1.73l1.14-3.37c.19-.56.98-.56,1.17,0l1.14,3.37c.28.82.92,1.46,1.73,1.73l3.37,1.14c.56.19.56.98,0,1.17l-3.37,1.14c-.82.28-1.46.92-1.73,1.73l-1.14,3.37c-.19.56-.98.56-1.17,0Z" style="stroke:#000; stroke-linecap:round; stroke-linejoin:round; stroke-width:4px;"/><path d="M218.42,42.19l-1.5-6.5c-.29-1.24-1.26-2.22-2.5-2.5l-6.5-1.5c-2.17-.5-2.17-3.58,0-4.08l6.5-1.5c1.24-.29,2.22-1.26,2.5-2.5l1.5-6.5c.5-2.17,3.58-2.17,4.08,0l1.5,6.5c.29,1.24,1.26,2.22,2.5,2.5l6.5,1.5c2.17.5,2.17,3.58,0,4.08l-6.5,1.5c-1.24.29-2.22,1.26-2.5,2.5l-1.5,6.5c-.5,2.17-3.58,2.17-4.08,0Z" style="fill:#fff; stroke:#000; stroke-linecap:round; stroke-linejoin:round; stroke-width:4px;"/><path d="M229.1,27.27l-1.14-3.37c-.28-.82-.92-1.46-1.73-1.73l-3.37-1.14c-.56-.19-.56-.98,0-1.17l3.37-1.14c.82-.28,1.46-.92,1.73-1.73l1.14-3.37c.19-.56.98-.56,1.17,0l1.14,3.37c.28.82.92,1.46,1.73,1.73l3.37,1.14c.56.19.56.98,0,1.17l-3.37,1.14c-.82.28-1.46.92-1.73,1.73l-1.14,3.37c-.19.56-.98.56-1.17,0Z" style="stroke:#000; stroke-linecap:round; stroke-linejoin:round; stroke-width:4px;"/><path d="M218.32,42.09l-1.5-6.5c-.29-1.24-1.26-2.22-2.5-2.5l-6.5-1.5c-2.17-.5-2.17-3.58,0-4.08l6.5-1.5c1.24-.29,2.22-1.26,2.5-2.5l1.5-6.5c.5-2.17,3.58-2.17,4.08,0l1.5,6.5c.29,1.24,1.26,2.22,2.5,2.5l6.5,1.5c2.17.5,2.17,3.58,0,4.08l-6.5,1.5c-1.24.29-2.22,1.26-2.5,2.5l-1.5,6.5c-.5,2.17-3.58,2.17-4.08,0Z" style="fill:#fff; stroke:#000; stroke-linecap:round; stroke-linejoin:round; stroke-width:4px;"/><path d="M229,27.17l-1.14-3.37c-.28-.82-.92-1.46-1.73-1.73l-3.37-1.14c-.56-.19-.56-.98,0-1.17l3.37-1.14c.82-.28,1.46-.92,1.73-1.73l1.14-3.37c.19-.56.98-.56,1.17,0l1.14,3.37c.28.82.92,1.46,1.73,1.73l3.37,1.14c.56.19.56.98,0,1.17l-3.37,1.14c-.82.28-1.46.92-1.73,1.73l-1.14,3.37c-.19.56-.98.56-1.17,0Z" style="stroke:#000; stroke-linecap:round; stroke-linejoin:round; stroke-width:4px;"/><path d="M218.22,41.99l-1.5-6.5c-.29-1.24-1.26-2.22-2.5-2.5l-6.5-1.5c-2.17-.5-2.17-3.58,0-4.08l6.5-1.5c1.24-.29,2.22-1.26,2.5-2.5l1.5-6.5c.5-2.17,3.58-2.17,4.08,0l1.5,6.5c.29,1.24,1.26,2.22,2.5,2.5l6.5,1.5c2.17.5,2.17,3.58,0,4.08l-6.5,1.5c-1.24.29-2.22,1.26-2.5,2.5l-1.5,6.5c-.5,2.17-3.58,2.17-4.08,0Z" style="fill:#fff; stroke:#000; stroke-linecap:round; stroke-linejoin:round; stroke-width:4px;"/><path d="M228.9,27.07l-1.14-3.37c-.28-.82-.92-1.46-1.73-1.73l-3.37-1.14c-.56-.19-.56-.98,0-1.17l3.37-1.14c.82-.28,1.46-.92,1.73-1.73l1.14-3.37c.19-.56.98-.56,1.17,0l1.14,3.37c.28.82.92,1.46,1.73,1.73l3.37,1.14c.56.19.56.98,0,1.17l-3.37,1.14c-.82.28-1.46.92-1.73,1.73l-1.14,3.37c-.19.56-.98.56-1.17,0Z" style="stroke:#000; stroke-linecap:round; stroke-linejoin:round; stroke-width:4px;"/><path d="M218.12,41.89l-1.5-6.5c-.29-1.24-1.26-2.22-2.5-2.5l-6.5-1.5c-2.17-.5-2.17-3.58,0-4.08l6.5-1.5c1.24-.29,2.22-1.26,2.5-2.5l1.5-6.5c.5-2.17,3.58-2.17,4.08,0l1.5,6.5c.29,1.24,1.26,2.22,2.5,2.5l6.5,1.5c2.17.5,2.17,3.58,0,4.08l-6.5,1.5c-1.24.29-2.22,1.26-2.5,2.5l-1.5,6.5c-.5,2.17-3.58,2.17-4.08,0Z" style="fill:#fff; stroke:#000; stroke-linecap:round; stroke-linejoin:round; stroke-width:4px;"/><path d="M228.8,26.97l-1.14-3.37c-.28-.82-.92-1.46-1.73-1.73l-3.37-1.14c-.56-.19-.56-.98,0-1.17l3.37-1.14c.82-.28,1.46-.92,1.73-1.73l1.14-3.37c.19-.56.98-.56,1.17,0l1.14,3.37c.28.82.92,1.46,1.73,1.73l3.37,1.14c.56.19.56.98,0,1.17l-3.37,1.14c-.82.28-1.46.92-1.73,1.73l-1.14,3.37c-.19.56-.98.56-1.17,0Z" style="stroke:#000; stroke-linecap:round; stroke-linejoin:round; stroke-width:4px;"/><path d="M218.02,41.79l-1.5-6.5c-.29-1.24-1.26-2.22-2.5-2.5l-6.5-1.5c-2.17-.5-2.17-3.58,0-4.08l6.5-1.5c1.24-.29,2.22-1.26,2.5-2.5l1.5-6.5c.5-2.17,3.58-2.17,4.08,0l1.5,6.5c.29,1.24,1.26,2.22,2.5,2.5l6.5,1.5c2.17.5,2.17,3.58,0,4.08l-6.5,1.5c-1.24.29-2.22,1.26-2.5,2.5l-1.5,6.5c-.5,2.17-3.58,2.17-4.08,0Z" style="fill:#fff; stroke:#000; stroke-linecap:round; stroke-linejoin:round; stroke-width:4px;"/><path d="M228.7,26.87l-1.14-3.37c-.28-.82-.92-1.46-1.73-1.73l-3.37-1.14c-.56-.19-.56-.98,0-1.17l3.37-1.14c.82-.28,1.46-.92,1.73-1.73l1.14-3.37c.19-.56.98-.56,1.17,0l1.14,3.37c.28.82.92,1.46,1.73,1.73l3.37,1.14c.56.19.56.98,0,1.17l-3.37,1.14c-.82.28-1.46.92-1.73,1.73l-1.14,3.37c-.19.56-.98.56-1.17,0Z" style="stroke:#000; stroke-linecap:round; stroke-linejoin:round; stroke-width:4px;"/><path d="M217.92,41.69l-1.5-6.5c-.29-1.24-1.26-2.22-2.5-2.5l-6.5-1.5c-2.17-.5-2.17-3.58,0-4.08l6.5-1.5c1.24-.29,2.22-1.26,2.5-2.5l1.5-6.5c.5-2.17,3.58-2.17,4.08,0l1.5,6.5c.29,1.24,1.26,2.22,2.5,2.5l6.5,1.5c2.17.5,2.17,3.58,0,4.08l-6.5,1.5c-1.24.29-2.22,1.26-2.5,2.5l-1.5,6.5c-.5,2.17-3.58,2.17-4.08,0Z" style="fill:#fff; stroke:#000; stroke-linecap:round; stroke-linejoin:round; stroke-width:4px;"/><path d="M228.6,26.77l-1.14-3.37c-.28-.82-.92-1.46-1.73-1.73l-3.37-1.14c-.56-.19-.56-.98,0-1.17l3.37-1.14c.82-.28,1.46-.92,1.73-1.73l1.14-3.37c.19-.56.98-.56,1.17,0l1.14,3.37c.28.82.92,1.46,1.73,1.73l3.37,1.14c.56.19.56.98,0,1.17l-3.37,1.14c-.82.28-1.46.92-1.73,1.73l-1.14,3.37c-.19.56-.98.56-1.17,0Z" style="stroke:#000; stroke-linecap:round; stroke-linejoin:round; stroke-width:4px;"/><path d="M217.82,41.59l-1.5-6.5c-.29-1.24-1.26-2.22-2.5-2.5l-6.5-1.5c-2.17-.5-2.17-3.58,0-4.08l6.5-1.5c1.24-.29,2.22-1.26,2.5-2.5l1.5-6.5c.5-2.17,3.58-2.17,4.08,0l1.5,6.5c.29,1.24,1.26,2.22,2.5,2.5l6.5,1.5c2.17.5,2.17,3.58,0,4.08l-6.5,1.5c-1.24.29-2.22,1.26-2.5,2.5l-1.5,6.5c-.5,2.17-3.58,2.17-4.08,0Z" style="fill:#fff; stroke:#000; stroke-linecap:round; stroke-linejoin:round; stroke-width:4px;"/><path d="M228.5,26.67l-1.14-3.37c-.28-.82-.92-1.46-1.73-1.73l-3.37-1.14c-.56-.19-.56-.98,0-1.17l3.37-1.14c.82-.28,1.46-.92,1.73-1.73l1.14-3.37c.19-.56.98-.56,1.17,0l1.14,3.37c.28.82.92,1.46,1.73,1.73l3.37,1.14c.56.19.56.98,0,1.17l-3.37,1.14c-.82.28-1.46.92-1.73,1.73l-1.14,3.37c-.19.56-.98.56-1.17,0Z" style="stroke:#000; stroke-linecap:round; stroke-linejoin:round; stroke-width:4px;"/><path d="M217.72,41.49l-1.5-6.5c-.29-1.24-1.26-2.22-2.5-2.5l-6.5-1.5c-2.17-.5-2.17-3.58,0-4.08l6.5-1.5c1.24-.29,2.22-1.26,2.5-2.5l1.5-6.5c.5-2.17,3.58-2.17,4.08,0l1.5,6.5c.29,1.24,1.26,2.22,2.5,2.5l6.5,1.5c2.17.5,2.17,3.58,0,4.08l-6.5,1.5c-1.24.29-2.22,1.26-2.5,2.5l-1.5,6.5c-.5,2.17-3.58,2.17-4.08,0Z" style="fill:#fff; stroke:#000; stroke-linecap:round; stroke-linejoin:round; stroke-width:4px;"/><path d="M228.4,26.57l-1.14-3.37c-.28-.82-.92-1.46-1.73-1.73l-3.37-1.14c-.56-.19-.56-.98,0-1.17l3.37-1.14c.82-.28,1.46-.92,1.73-1.73l1.14-3.37c.19-.56.98-.56,1.17,0l1.14,3.37c.28.82.92,1.46,1.73,1.73l3.37,1.14c.56.19.56.98,0,1.17l-3.37,1.14c-.82.28-1.46.92-1.73,1.73l-1.14,3.37c-.19.56-.98.56-1.17,0Z" style="stroke:#000; stroke-linecap:round; stroke-linejoin:round; stroke-width:4px;"/><path d="M217.62,41.39l-1.5-6.5c-.29-1.24-1.26-2.22-2.5-2.5l-6.5-1.5c-2.17-.5-2.17-3.58,0-4.08l6.5-1.5c1.24-.29,2.22-1.26,2.5-2.5l1.5-6.5c.5-2.17,3.58-2.17,4.08,0l1.5,6.5c.29,1.24,1.26,2.22,2.5,2.5l6.5,1.5c2.17.5,2.17,3.58,0,4.08l-6.5,1.5c-1.24.29-2.22,1.26-2.5,2.5l-1.5,6.5c-.5,2.17-3.58,2.17-4.08,0Z" style="fill:#fff; stroke:#000; stroke-linecap:round; stroke-linejoin:round; stroke-width:4px;"/><path d="M228.3,26.47l-1.14-3.37c-.28-.82-.92-1.46-1.73-1.73l-3.37-1.14c-.56-.19-.56-.98,0-1.17l3.37-1.14c.82-.28,1.46-.92,1.73-1.73l1.14-3.37c.19-.56.98-.56,1.17,0l1.14,3.37c.28.82.92,1.46,1.73,1.73l3.37,1.14c.56.19.56.98,0,1.17l-3.37,1.14c-.82.28-1.46.92-1.73,1.73l-1.14,3.37c-.19.56-.98.56-1.17,0Z" style="stroke:#000; stroke-linecap:round; stroke-linejoin:round; stroke-width:4px;"/><path d="M217.52,41.29l-1.5-6.5c-.29-1.24-1.26-2.22-2.5-2.5l-6.5-1.5c-2.17-.5-2.17-3.58,0-4.08l6.5-1.5c1.24-.29,2.22-1.26,2.5-2.5l1.5-6.5c.5-2.17,3.58-2.17,4.08,0l1.5,6.5c.29,1.24,1.26,2.22,2.5,2.5l6.5,1.5c2.17.5,2.17,3.58,0,4.08l-6.5,1.5c-1.24.29-2.22,1.26-2.5,2.5l-1.5,6.5c-.5,2.17-3.58,2.17-4.08,0Z" style="fill:#fff; stroke:#000; stroke-linecap:round; stroke-linejoin:round; stroke-width:4px;"/><path d="M228.2,26.37l-1.14-3.37c-.28-.82-.92-1.46-1.73-1.73l-3.37-1.14c-.56-.19-.56-.98,0-1.17l3.37-1.14c.82-.28,1.46-.92,1.73-1.73l1.14-3.37c.19-.56.98-.56,1.17,0l1.14,3.37c.28.82.92,1.46,1.73,1.73l3.37,1.14c.56.19.56.98,0,1.17l-3.37,1.14c-.82.28-1.46.92-1.73,1.73l-1.14,3.37c-.19.56-.98.56-1.17,0Z" style="stroke:#000; stroke-linecap:round; stroke-linejoin:round; stroke-width:4px;"/><path d="M219.56,42.42c-.59,0-1.34-.32-1.55-1.24l-1.5-6.5c-.33-1.42-1.46-2.55-2.88-2.88l-6.5-1.5c-.91-.21-1.24-.97-1.24-1.55s.32-1.34,1.24-1.55l6.5-1.5c1.42-.33,2.55-1.46,2.88-2.88l1.5-6.5c.21-.91.97-1.24,1.55-1.24s1.34.32,1.55,1.24l1.5,6.5c.33,1.42,1.46,2.55,2.88,2.88l6.5,1.5c.91.21,1.24.97,1.24,1.55s-.32,1.34-1.24,1.55l-6.5,1.5c-1.42.33-2.55,1.46-2.88,2.88l-1.5,6.5c-.21.91-.97,1.24-1.55,1.24Z"/><path d="M219.56,15.59c.42,0,.92.22,1.07.85l1.5,6.5c.37,1.61,1.65,2.88,3.25,3.25l6.49,1.5c.63.14.85.65.85,1.07,0,.42-.22.92-.85,1.07l-6.49,1.5c-1.61.37-2.88,1.65-3.25,3.25l-1.5,6.5c-.14.63-.65.85-1.07.85s-.92-.22-1.07-.85l-1.5-6.5c-.37-1.61-1.65-2.88-3.25-3.25l-6.5-1.5c-.63-.14-.85-.65-.85-1.07,0-.42.22-.92.85-1.07l6.5-1.5c1.61-.37,2.88-1.65,3.25-3.25l1.5-6.5c.14-.63.65-.85,1.07-.85M219.56,14.59c-.9,0-1.79.54-2.04,1.62l-1.5,6.5c-.29,1.24-1.26,2.22-2.5,2.5l-6.5,1.5c-2.17.5-2.17,3.58,0,4.08l6.5,1.5c1.24.29,2.22,1.26,2.5,2.5l1.5,6.5c.25,1.08,1.15,1.62,2.04,1.62s1.79-.54,2.04-1.62l1.5-6.5c.29-1.24,1.26-2.22,2.5-2.5l6.49-1.5c2.17-.5,2.17-3.58,0-4.08l-6.49-1.5c-1.24-.29-2.22-1.26-2.5-2.5l-1.5-6.5c-.25-1.08-1.15-1.62-2.04-1.62h0Z" style="fill:#fff;"/><path d="M228.78,26.02c-.09,0-.1-.06-.11-.08l-.72-2.46c-.44-1.5-1.59-2.66-3.09-3.09l-2.46-.72s-.08-.02-.08-.11.06-.1.08-.11l2.46-.72c1.5-.44,2.66-1.59,3.09-3.09l.72-2.46s.02-.08.11-.08.1.06.11.08l.72,2.46c.44,1.5,1.6,2.66,3.09,3.09l2.46.72s.08.02.08.11-.06.1-.08.11l-2.46.72c-1.5.44-2.66,1.6-3.09,3.09l-.72,2.46s-.02.08-.11.08Z"/><path d="M228.78,14.56l.35,1.2c.49,1.66,1.77,2.95,3.43,3.43l1.2.35-1.2.35c-1.66.49-2.95,1.77-3.43,3.43l-.35,1.2-.35-1.2c-.49-1.66-1.77-2.95-3.43-3.43l-1.2-.35,1.2-.35c1.66-.49,2.95-1.77,3.43-3.43l.35-1.2M228.78,12.58c-.25,0-.5.15-.59.44l-.72,2.46c-.39,1.33-1.43,2.37-2.75,2.75l-2.46.72c-.59.17-.59,1.01,0,1.18l2.46.72c1.33.39,2.37,1.43,2.75,2.75l.72,2.46c.09.3.34.44.59.44s.5-.15.59-.44l.72-2.46c.39-1.33,1.43-2.37,2.75-2.75l2.46-.72c.59-.17.59-1.01,0-1.18l-2.46-.72c-1.33-.39-2.37-1.43-2.75-2.75l-.72-2.46c-.09-.3-.34-.44-.59-.44h0Z" style="fill:#fff;"/><path d="M205.31,30.99h-17.28c-2.45,0-4.86.62-7.2,1.86-1.87-1.18-4.14-1.86-6.63-1.86h-17.28c-1.79,0-3.56.33-5.3,1-1.51-.64-3.19-1-5-1h-48.38c-1.75,0-3.47.32-5.15.95-1.47-.61-3.11-.95-4.86-.95h-9.71c1.29-.5,2.59-.99,3.92-1.45,16.44-5.67,35.44-8.77,48-11.1,2.65-.49,4.85-.47,4.85-.47.99.41,1.61,1.41,1.53,2.48l-.48,6.3c-.11,1.39,1.63,2.11,2.53,1.04l4.09-4.81c.7-.82,1.84-1.1,2.83-.69l5.84,2.41c1.29.53,2.51-.9,1.78-2.09l-2.86-4.65-.78-1.67c-.1-.69.09-1.41.56-1.97l4.09-4.81c.9-1.06-.08-2.66-1.44-2.33l-6.14,1.49c-1.04.25-2.13-.2-2.7-1.11l-3.31-5.38c-.73-1.19-2.56-.75-2.66.65l-.48,6.3c-.08,1.07-.85,1.97-1.89,2.22l-6.14,1.49c-.11.03-41.01,5.62-64,16.68-1.01.48-1.99.98-2.98,1.48h-22.83c-2.85,0-5.66.85-8.35,2.52-2.51,1.56-4.46,3.58-5.82,6l-17.96,31.03-.15.26c-1.13,2.09-1.7,4.27-1.7,6.47,0,.69.07,1.37.18,2.02C1.26,88.33.06,96.81,3.37,103.68c9.53,19.83,52.89,18.77,96.83-2.37,7.83-3.76,15.14-7.92,21.82-12.3h2.65c1.8,0,3.58-.34,5.32-1,1.5.64,3.18,1,4.98,1h17.29c2.44,0,4.84-.62,7.17-1.84,1.88,1.17,4.15,1.84,6.65,1.84h17.28c2.89,0,5.71-.87,8.4-2.57,2.37-1.51,4.27-3.44,5.65-5.74l7.96-13.89c1.09-1.82,1.73-3.72,1.91-5.66,1.67-1.31,3.04-2.87,4.1-4.65l4.06-7.08.13-.23c1.13-2.09,1.7-4.27,1.7-6.47,0-6.69-5.13-11.73-11.94-11.73ZM111.11,89.13c-36.47,17.54-72.46,18.42-80.37,1.96-.32-.67-.58-1.37-.8-2.09h36.34c1.72,0,3.44-.32,5.13-.96,1.48.61,3.12.96,4.88.96h35.07c-.08.04-.17.08-.25.12Z" style="stroke:#fff; stroke-miterlimit:10;"/><path d="M62.97,54.82c-1.34,0-2.02-.58-2.02-1.73,0-.53.17-1.1.5-1.73l2.02-3.46c.34-.62.5-1.2.5-1.73,0-1.15-.65-1.73-1.94-1.73-.96,0-1.97.34-3.02,1.01-1.05.67-1.87,1.49-2.44,2.45l-13.97,24.19c-.34.62-.51,1.2-.51,1.72,0,1.15.65,1.73,1.94,1.73.96,0,1.98-.33,3.06-1.01,1.08-.67,1.88-1.49,2.41-2.45l5.98-10.36c.58-.96,1.39-1.78,2.45-2.45s2.06-1.01,3.02-1.01h17.28c1.34,0,2.02.58,2.02,1.73,0,.53-.19,1.1-.58,1.73l-7.99,13.82c-.53.96-1.33,1.78-2.41,2.45-1.08.67-2.08,1.01-2.99,1.01H17.9c-1.34,0-2.02-.58-2.02-1.73,0-.53.17-1.1.5-1.73l18-31.1c.53-.96,1.33-1.78,2.41-2.45,1.08-.67,2.1-1.01,3.06-1.01h48.38c1.3,0,1.94.58,1.94,1.73,0,.53-.17,1.1-.5,1.73l-4.03,6.91c-.53.96-1.33,1.78-2.41,2.45-1.08.67-2.08,1.01-2.99,1.01h-17.28Z" style="fill:#fff;"/><path d="M121.36,54.82c-1.3,0-1.94-.58-1.94-1.73,0-.53.17-1.1.5-1.73l2.02-3.46c.33-.62.5-1.2.5-1.73,0-1.15-.67-1.73-2.02-1.73-.91,0-1.91.34-2.99,1.01-1.08.67-1.89,1.49-2.41,2.45l-4.03,6.91c-.33.62-.5,1.2-.5,1.73,0,1.15.67,1.73,2.02,1.73h24.19c1.3,0,1.94.58,1.94,1.73,0,.53-.17,1.1-.5,1.73l-7.99,13.82c-.53.96-1.33,1.78-2.41,2.45-1.08.67-2.1,1.01-3.06,1.01h-48.38c-1.3,0-1.94-.58-1.94-1.73,0-.53.17-1.1.5-1.73l3.96-6.91c.58-.96,1.39-1.78,2.45-2.45,1.06-.67,2.06-1.01,3.02-1.01h17.28c1.34,0,2.02.58,2.02,1.73,0,.53-.19,1.1-.58,1.73l-1.94,3.46c-.38.62-.58,1.2-.58,1.73,0,1.15.67,1.73,2,1.73.95,0,1.96-.34,3.01-1.01,1.05-.68,1.86-1.5,2.43-2.46l3.97-6.91c.41-.62.61-1.19.61-1.72,0-1.14-.67-1.72-2.02-1.72h-24.19c-1.34,0-2.02-.58-2.02-1.73,0-.53.19-1.1.58-1.73l7.92-13.82c.58-.96,1.39-1.78,2.45-2.45,1.06-.67,2.06-1.01,3.02-1.01h48.38c1.34,0,2.02.58,2.02,1.73,0,.53-.19,1.1-.58,1.73l-3.96,6.91c-.53.96-1.33,1.78-2.41,2.45-1.08.67-2.1,1.01-3.06,1.01h-17.28Z" style="fill:#fff;"/><path d="M164.2,58.27c.82,0,1.73-.17,2.74-.5,1.25-.43,1.87-1.01,1.87-1.73,0-.82-.86-1.22-2.59-1.22h-17.28c-1.34,0-2.02-.58-2.02-1.73,0-.53.19-1.1.58-1.73l3.96-6.91c.53-.96,1.33-1.78,2.41-2.45,1.08-.67,2.1-1.01,3.06-1.01h17.28c1.3,0,1.94.58,1.94,1.73,0,.53-.17,1.1-.5,1.73l-2.02,3.46c-.34.62-.5,1.2-.5,1.73,0,1.15.67,1.73,2.02,1.73.91,0,1.91-.33,2.99-1.01,1.08-.67,1.89-1.49,2.41-2.45l2.02-3.46c.53-.96,1.33-1.78,2.41-2.45s2.1-1.01,3.06-1.01h17.28c1.3,0,1.94.58,1.94,1.73,0,.53-.17,1.1-.5,1.73l-3.96,6.91c-.58.96-1.39,1.78-2.45,2.45-1.06.67-2.06,1.01-3.02,1.01h-17.28c-.82,0-1.73.17-2.74.5-1.25.43-1.87,1.01-1.87,1.73,0,.82.86,1.22,2.59,1.22h17.28c1.34,0,2.02.58,2.02,1.73,0,.53-.19,1.1-.58,1.73l-7.92,13.82c-.58.96-1.39,1.78-2.45,2.45-1.06.67-2.06,1.01-3.02,1.01h-17.28c-1.34,0-2.02-.58-2.02-1.73,0-.53.19-1.1.58-1.73l5.98-10.37c.33-.62.5-1.2.5-1.73,0-1.15-.65-1.73-1.94-1.73-.96,0-1.97.34-3.02,1.01-1.06.67-1.87,1.49-2.44,2.45l-5.98,10.37c-.53.96-1.33,1.77-2.41,2.44-1.08.67-2.1,1.01-3.06,1.01h-17.29c-1.3,0-1.94-.58-1.94-1.73,0-.53.17-1.1.5-1.73l7.99-13.82c.53-.96,1.33-1.78,2.41-2.45s2.1-1.01,3.06-1.01h17.21Z" style="fill:#fff;"/><path d="M21.19,109.39l-.27-2.12c-.38-2.97-2.72-5.3-5.68-5.68l-2.12-.27,2.12-.27c2.97-.38,5.3-2.72,5.68-5.68l.27-2.12.27,2.12c.38,2.97,2.72,5.3,5.68,5.68l2.12.27-2.12.27c-2.97.38-5.3,2.72-5.68,5.68l-.27,2.12Z" style="fill:#fff;"/><path d="M13.11,95.82l-.15-1.19c-.21-1.66-1.52-2.97-3.18-3.18l-1.19-.15,1.19-.15c1.66-.21,2.97-1.52,3.18-3.18l.15-1.19.15,1.19c.21,1.66,1.52,2.97,3.18,3.18l1.19.15-1.19.15c-1.66.21-2.97,1.52-3.18,3.18l-.15,1.19Z" style="fill:#fff;"/></g></svg>