<?xml version="1.0" encoding="UTF-8"?><svg id="Layer_1" xmlns="http://www.w3.org/2000/svg" viewBox="0 0 1920 1080"><g id="template"><g id="header"><rect id="box" y="0" width="1920" height="157.57"/><g id="logo"><rect x="26.07" y="26.07" width="105.43" height="105.43" rx="52.71" ry="52.71" style="fill:#1d1d1b; stroke:#fff; stroke-miterlimit:10;"/><circle cx="78.79" cy="78.78" r="43.93" style="fill:none; stroke:#fff; stroke-miterlimit:10; stroke-width:5px;"/><path d="M50.49,57.07s9.25-2.64,17.62,9.25" style="fill:none; stroke:#fff; stroke-linecap:round; stroke-linejoin:round; stroke-width:5px;"/><path d="M54.45,73.01s3.52-16.29,15.41-22.02" style="fill:none; stroke:#fff; stroke-linecap:round; stroke-linejoin:round; stroke-width:5px;"/><path d="M106.9,57.07s-9.25-2.64-17.62,9.25" style="fill:none; stroke:#fff; stroke-linecap:round; stroke-linejoin:round; stroke-width:5px;"/><path d="M102.94,73.01s-3.52-16.29-15.41-22.02" style="fill:none; stroke:#fff; stroke-linecap:round; stroke-linejoin:round; stroke-width:5px;"/><path d="M78.79,95.07c6.14,0,11.58,2.99,14.95,7.6,1.09,1.49,3.46.74,3.47-1.1,0-.06,0-.12,0-.18,0-10.67-9.03-19.24-19.87-18.47-9.09.65-16.43,7.96-17.11,17.05-.05.64-.06,1.27-.05,1.89.05,1.83,2.43,2.54,3.48,1.04,3.35-4.74,8.87-7.83,15.12-7.83Z" style="fill:none; stroke:#fff; stroke-linecap:round; stroke-linejoin:round; stroke-width:5px;"/></g><text id="heading" transform="translate(876.37 103.23)" style="fill:#fff; font-family:Amiri-Bold, Amiri; font-size:72px; font-weight:700;"><tspan x="0" y="0">التَّجْرِيْد</tspan></text><polygon points="1880.62 118.18 1841.22 39.39 1801.83 118.18 1880.62 118.18" style="fill:#fff;"/></g></g><g id="triangles"><polygon points="1210.5 1019.81 747.43 217.76 284.36 1019.81 1210.5 1019.81" style="fill:#00aeef;"/><polygon points="1094.73 819.3 747.43 217.76 400.13 819.3 1094.73 819.3" style="fill:#00c0f3;"/><polygon points="978.96 618.78 747.43 217.76 515.89 618.78 978.96 618.78" style="fill:#8ed8f8;"/><polygon points="863.19 418.27 747.43 217.76 631.66 418.27 863.19 418.27" style="fill:#e1f4fd;"/></g><g id="text"><text transform="translate(1274.21 495.94)" style="fill:#f0f; font-family:Amiri-Regular, Amiri; font-size:72px;"><tspan x="0" y="0">منظقة ذي تجريد عالٍ</tspan></text><text transform="translate(1214.52 793.58)" style="fill:#f7931e; font-family:Amiri-Regular, Amiri; font-size:72px;"><tspan x="0" y="0">منظقة ذي تجريد منخفض</tspan></text><text transform="translate(61.92 593.06)" style="fill:red; font-family:Amiri-Regular, Amiri; font-size:72px;"><tspan x="0" y="0">كمية التفاصيل</tspan></text><text transform="translate(842.06 531.02) rotate(60)" style="font-family:Amiri-Regular, Amiri; font-size:72px;"><tspan x="0" y="0">طبقات التجريد</tspan></text></g><g id="number"><text transform="translate(359.56 943.96)" style="font-family:Amiri-Regular, Amiri; font-size:72px;"><tspan x="0" y="0">100%</tspan></text><text transform="translate(471.04 743.45)" style="font-family:Amiri-Regular, Amiri; font-size:72px;"><tspan x="0" y="0">75%</tspan></text><text transform="translate(589.61 542.94)" style="font-family:Amiri-Regular, Amiri; font-size:72px;"><tspan x="0" y="0">50%</tspan></text><text transform="translate(685.69 375.84)" style="font-family:Amiri-Regular, Amiri; font-size:72px;"><tspan x="0" y="0">25%</tspan></text></g><g id="paths"><path d="M1251.41,1019.81h232.63c13.81,0,25-11.19,25-25v-139.6" style="fill:none; stroke:#f7931e; stroke-linecap:round; stroke-linejoin:round; stroke-width:5px;"/><polygon points="1275.97 1047.33 1254.67 1019.81 1275.97 992.29 1210.9 1019.81 1275.97 1047.33" style="fill:#f7931e;"/><polygon points="1268.83 1041.72 1217.8 1019.81 1251.02 1019.81 1268.83 1041.72" style="fill:#fcd9b0;"/><polygon points="1268.83 997.89 1217.8 1019.81 1251.02 1019.81 1268.83 997.89" style="fill:#fabe78;"/><line x1="642.2" y1="252.91" x2="222.97" y2="984.66" style="fill:none; stroke:red; stroke-linecap:round; stroke-linejoin:round; stroke-width:5px;"/><polygon points="606.12 260.53 640.58 255.73 653.87 287.9 662.34 217.76 606.12 260.53" style="fill:red;"/><polygon points="614.53 257.13 658.91 223.75 642.39 252.57 614.53 257.13" style="fill:#ffa6a6;"/><polygon points="652.56 278.92 658.91 223.75 642.39 252.57 652.56 278.92" style="fill:#f66;"/><polygon points="211.3 949.67 224.59 981.84 259.05 977.04 202.83 1019.81 211.3 949.67" style="fill:red;"/><polygon points="212.61 958.66 206.26 1013.82 222.78 985 212.61 958.66" style="fill:#ffa6a6;"/><polygon points="250.64 980.45 206.26 1013.82 222.78 985 250.64 980.45" style="fill:#f66;"/><path d="M788.35,217.78l687.5.37c18.23,0,33,14.79,33,33.02v149.99" style="fill:none; stroke:#f0f; stroke-linecap:round; stroke-linejoin:round; stroke-width:5px;"/><polygon points="812.88 245.31 791.6 217.78 812.91 190.27 747.83 217.76 812.88 245.31" style="fill:#f0f;"/><polygon points="805.75 239.7 754.73 217.76 787.96 217.78 805.75 239.7" style="fill:#ffa6ff;"/><polygon points="805.77 195.87 754.73 217.76 787.96 217.78 805.77 195.87" style="fill:#f6f;"/></g></svg>