<?xml version="1.0" encoding="UTF-8"?>
<svg id="svg5672" xmlns="http://www.w3.org/2000/svg" version="1.1" xmlns:cc="http://creativecommons.org/ns#" xmlns:dc="http://purl.org/dc/elements/1.1/" xmlns:rdf="http://www.w3.org/1999/02/22-rdf-syntax-ns#" xmlns:svg="http://www.w3.org/2000/svg" viewBox="0 0 490 460">
  <!-- Generator: Adobe Illustrator 30.0.0, SVG Export Plug-In . SVG Version: 2.1.1 Build 123)  -->
  <defs>
    <style>
      .st0 {
        fill: none;
        stroke-width: 2px;
      }

      .st0, .st1 {
        stroke: #000;
      }

      .st2 {
        fill: blue;
      }

      .st3 {
        font-size: 24px;
      }

      .st3, .st4, .st5, .st6 {
        font-family: Amiri-Regular, Amiri;
      }

      .st3, .st6, .st1 {
        fill: #fff;
      }

      .st7 {
        fill: #4c4c4c;
      }

      .st8 {
        fill: red;
      }

      .st4, .st6 {
        font-size: 18px;
      }

      .st5 {
        font-size: 36px;
      }

      .st9 {
        fill: #009554;
      }
    </style>
  </defs>
  <path id="path20137" d="M97,323.4h296.1c3.6,0,6.6,2.9,6.6,6.6v40c0,3.6-2.9,6.6-6.6,6.6H97c-3.6,0-6.6-2.9-6.6-6.6v-40c0-3.6,2.9-6.6,6.6-6.6Z"/>
  <path id="path20269" class="st2" d="M32.4,234.8h106.3c9.8,0,17.7,7.9,17.7,17.7h0c0,9.8-7.9,17.7-17.7,17.7H32.4c-9.8,0-17.7-7.9-17.7-17.7h0c0-9.8,7.9-17.7,17.7-17.7Z"/>
  <path id="path202691" data-name="path20269" class="st8" d="M191.9,234.8h106.3c9.8,0,17.7,7.9,17.7,17.7h0c0,9.8-7.9,17.7-17.7,17.7h-106.3c-9.8,0-17.7-7.9-17.7-17.7h0c0-9.8,7.9-17.7,17.7-17.7Z"/>
  <path id="path20485" class="st9" d="M351.3,234.8h106.3c9.8,0,17.7,7.9,17.7,17.7h0c0,9.8-7.9,17.7-17.7,17.7h-106.3c-9.8,0-17.7-7.9-17.7-17.7h0c0-9.8,7.9-17.7,17.7-17.7Z"/>
  <text class="st6" transform="translate(52.7 255.7)"><tspan x="0" y="0">محرك البحث </tspan></text>
  <text class="st6" transform="translate(210.5 255.7)"><tspan x="0" y="0">محرك البحث </tspan></text>
  <text class="st6" transform="translate(371.6 255.7)"><tspan x="0" y="0">محرك البحث </tspan></text>
  <text class="st3" transform="translate(158.1 354.6)"><tspan x="0" y="0">محرك البحث الوصفي</tspan></text>
  <text class="st4" transform="translate(163.6 417.4)"><tspan x="0" y="0">الاستعلام</tspan></text>
  <text class="st4" transform="translate(278.9 417.4)"><tspan x="0" y="0">الرد</tspan></text>
  <g>
    <line x1="439.9" y1="183.4" x2="439.9" y2="234.8"/>
    <g>
      <line class="st0" x1="439.9" y1="195.5" x2="439.9" y2="222.8"/>
      <path d="M439.9,183.4c-2.1,5.7-5.7,12.7-9.5,17.1l9.5-3.4,9.5,3.4c-3.8-4.4-7.4-11.4-9.5-17.1Z"/>
      <path d="M439.9,234.8c-2.1-5.7-5.7-12.7-9.5-17.1l9.5,3.4,9.5-3.4c-3.8,4.4-7.4,11.4-9.5,17.1Z"/>
    </g>
  </g>
  <g>
    <line x1="369" y1="182.6" x2="369" y2="234"/>
    <g>
      <line class="st0" x1="369" y1="194.6" x2="369" y2="221.9"/>
      <path d="M369,182.6c-2.1,5.7-5.7,12.7-9.5,17.1l9.5-3.4,9.5,3.4c-3.8-4.4-7.4-11.4-9.5-17.1Z"/>
      <path d="M369,234c-2.1-5.7-5.7-12.7-9.5-17.1l9.5,3.4,9.5-3.4c-3.8,4.4-7.4,11.4-9.5,17.1Z"/>
    </g>
  </g>
  <g>
    <line x1="369" y1="55.7" x2="369" y2="145.4"/>
    <g>
      <line class="st0" x1="369" y1="55.7" x2="369" y2="133.4"/>
      <path d="M369,145.4c-2.1-5.7-5.7-12.7-9.5-17.1l9.5,3.4,9.5-3.4c-3.8,4.4-7.4,11.4-9.5,17.1Z"/>
    </g>
  </g>
  <g>
    <line x1="402" y1="64.9" x2="439.9" y2="146.3"/>
    <g>
      <line class="st0" x1="402" y1="64.9" x2="434.8" y2="135.3"/>
      <path d="M439.9,146.3c-4.3-4.3-10.5-9.1-15.8-11.5l10.1-.9,7.2-7.1c-1.6,5.6-1.9,13.5-1.4,19.5Z"/>
    </g>
  </g>
  <g>
    <line x1="86.4" y1="64.9" x2="48.5" y2="146.3"/>
    <g>
      <line class="st0" x1="86.4" y1="64.9" x2="53.6" y2="135.3"/>
      <path d="M48.5,146.3c.5-6,.2-13.9-1.4-19.5l7.2,7.1,10.1.9c-5.3,2.3-11.5,7.2-15.8,11.5Z"/>
    </g>
  </g>
  <g>
    <line x1="253.9" y1="376.6" x2="253.9" y2="429.7"/>
    <g>
      <line class="st0" x1="253.9" y1="376.6" x2="253.9" y2="417.7"/>
      <path d="M253.9,429.7c-2.1-5.7-5.7-12.7-9.5-17.1l9.5,3.4,9.5-3.4c-3.8,4.4-7.4,11.4-9.5,17.1Z"/>
    </g>
  </g>
  <g>
    <line x1="230.2" y1="429.7" x2="230.2" y2="376.6"/>
    <g>
      <line class="st0" x1="230.2" y1="429.7" x2="230.2" y2="388.6"/>
      <path d="M230.2,376.6c2.1,5.7,5.7,12.7,9.5,17.1l-9.5-3.4-9.5,3.4c3.8-4.4,7.4-11.4,9.5-17.1Z"/>
    </g>
  </g>
  <g>
    <line x1="208.7" y1="55.7" x2="208.7" y2="145.4"/>
    <g>
      <line class="st0" x1="208.7" y1="55.7" x2="208.7" y2="133.4"/>
      <path d="M208.7,145.4c-2.1-5.7-5.7-12.7-9.5-17.1l9.5,3.4,9.5-3.4c-3.8,4.4-7.4,11.4-9.5,17.1Z"/>
    </g>
  </g>
  <g>
    <line x1="280.5" y1="55.7" x2="280.5" y2="145.4"/>
    <g>
      <line class="st0" x1="280.5" y1="55.7" x2="280.5" y2="133.4"/>
      <path d="M280.5,145.4c-2.1-5.7-5.7-12.7-9.5-17.1l9.5,3.4,9.5-3.4c-3.8,4.4-7.4,11.4-9.5,17.1Z"/>
    </g>
  </g>
  <g>
    <line x1="120.1" y1="54.8" x2="120.1" y2="144.5"/>
    <g>
      <line class="st0" x1="120.1" y1="54.8" x2="120.1" y2="132.5"/>
      <path d="M120.1,144.5c-2.1-5.7-5.7-12.7-9.5-17.1l9.5,3.4,9.5-3.4c-3.8,4.4-7.4,11.4-9.5,17.1Z"/>
    </g>
  </g>
  <g>
    <line x1="281.3" y1="182.6" x2="281.3" y2="234"/>
    <g>
      <line class="st0" x1="281.3" y1="194.6" x2="281.3" y2="221.9"/>
      <path d="M281.3,182.6c-2.1,5.7-5.7,12.7-9.5,17.1l9.5-3.4,9.5,3.4c-3.8-4.4-7.4-11.4-9.5-17.1Z"/>
      <path d="M281.3,234c-2.1-5.7-5.7-12.7-9.5-17.1l9.5,3.4,9.5-3.4c-3.8,4.4-7.4,11.4-9.5,17.1Z"/>
    </g>
  </g>
  <g>
    <line x1="208.7" y1="183.4" x2="208.7" y2="234.8"/>
    <g>
      <line class="st0" x1="208.7" y1="195.5" x2="208.7" y2="222.8"/>
      <path d="M208.7,183.4c-2.1,5.7-5.7,12.7-9.5,17.1l9.5-3.4,9.5,3.4c-3.8-4.4-7.4-11.4-9.5-17.1Z"/>
      <path d="M208.7,234.8c-2.1-5.7-5.7-12.7-9.5-17.1l9.5,3.4,9.5-3.4c-3.8,4.4-7.4,11.4-9.5,17.1Z"/>
    </g>
  </g>
  <g>
    <line x1="245" y1="271.1" x2="245" y2="322.6"/>
    <g>
      <line class="st0" x1="245" y1="283.2" x2="245" y2="310.5"/>
      <path d="M245,271.1c-2.1,5.7-5.7,12.7-9.5,17.1l9.5-3.4,9.5,3.4c-3.8-4.4-7.4-11.4-9.5-17.1Z"/>
      <path d="M245,322.6c-2.1-5.7-5.7-12.7-9.5-17.1l9.5,3.4,9.5-3.4c-3.8,4.4-7.4,11.4-9.5,17.1Z"/>
    </g>
  </g>
  <g>
    <line x1="397.4" y1="270.5" x2="344.6" y2="323.2"/>
    <g>
      <line class="st0" x1="388.8" y1="279" x2="353.1" y2="314.7"/>
      <path d="M397.4,270.5c-5.5,2.5-13,5-18.8,5.4l9.2,4.3,4.3,9.2c.4-5.8,2.8-13.3,5.4-18.8Z"/>
      <path d="M344.6,323.2c2.5-5.5,5-13,5.4-18.8l4.3,9.2,9.2,4.3c-5.8.4-13.3,2.8-18.8,5.4Z"/>
    </g>
  </g>
  <g>
    <line x1="92.7" y1="270.5" x2="145.5" y2="323.2"/>
    <g>
      <line class="st0" x1="101.2" y1="279" x2="136.9" y2="314.7"/>
      <path d="M92.7,270.5c2.5,5.5,5,13,5.4,18.8l4.3-9.2,9.2-4.3c-5.8-.4-13.3-2.8-18.8-5.4Z"/>
      <path d="M145.5,323.2c-5.5-2.5-13-5-18.8-5.4l9.2-4.3,4.3-9.2c.4,5.8,2.8,13.3,5.4,18.8Z"/>
    </g>
  </g>
  <g>
    <line x1="120.1" y1="183.4" x2="120.1" y2="234.8"/>
    <g>
      <line class="st0" x1="120.1" y1="195.5" x2="120.1" y2="222.8"/>
      <path d="M120.1,183.4c-2.1,5.7-5.7,12.7-9.5,17.1l9.5-3.4,9.5,3.4c-3.8-4.4-7.4-11.4-9.5-17.1Z"/>
      <path d="M120.1,234.8c-2.1-5.7-5.7-12.7-9.5-17.1l9.5,3.4,9.5-3.4c-3.8,4.4-7.4,11.4-9.5,17.1Z"/>
    </g>
  </g>
  <g>
    <line x1="48.5" y1="182.6" x2="48.5" y2="234"/>
    <g>
      <line class="st0" x1="48.5" y1="194.6" x2="48.5" y2="221.9"/>
      <path d="M48.5,182.6c-2.1,5.7-5.7,12.7-9.5,17.1l9.5-3.4,9.5,3.4c-3.8-4.4-7.4-11.4-9.5-17.1Z"/>
      <path d="M48.5,234c-2.1-5.7-5.7-12.7-9.5-17.1l9.5,3.4,9.5-3.4c-3.8,4.4-7.4,11.4-9.5,17.1Z"/>
    </g>
  </g>
  <g>
    <rect class="st1" x="40.3" y="26.4" width="406.1" height="74.2" rx="37.1" ry="37.1"/>
    <text class="st5" transform="translate(195.6 75.7)"><tspan x="0" y="0">المصادر</tspan></text>
  </g>
  <rect class="st7" x="342.4" y="146.3" width="53.2" height="35.5" rx="14.2" ry="14.2"/>
  <rect class="st7" x="254.7" y="146.3" width="53.2" height="35.5" rx="14.2" ry="14.2"/>
  <rect class="st7" x="93.5" y="146.3" width="53.2" height="35.5" rx="14.2" ry="14.2"/>
  <rect class="st7" x="21.9" y="146.3" width="53.2" height="35.5" rx="14.2" ry="14.2"/>
  <rect class="st7" x="182.2" y="146.7" width="53.2" height="35.5" rx="14.2" ry="14.2"/>
  <rect class="st7" x="413.3" y="146.3" width="53.2" height="35.5" rx="14.2" ry="14.2"/>
</svg>