<?xml version="1.0" encoding="UTF-8"?><svg xmlns="http://www.w3.org/2000/svg" viewBox="0 0 900 300"><g id="background"><path id="rect2186" d="M0,0h60v60H0V0Z" style="fill:#fff; fill-rule:evenodd; stroke:#000;"/><path id="rect2218" d="M60,0h60v60h-60V0Z" style="fill:#fff; fill-rule:evenodd; stroke:#000;"/><path id="rect2222" d="M120,0h60v60h-60V0Z" style="fill:#fff; fill-rule:evenodd; stroke:#000;"/><path id="rect2228" d="M180,0h60v60h-60V0Z" style="fill:#fff; fill-rule:evenodd; stroke:#000;"/><path id="rect2230" d="M240,0h60v60h-60V0Z" style="fill:#c8142b; fill-rule:evenodd; stroke:#000;"/><path id="rect2232" d="M300,0h60v60h-60V0Z" style="fill:#fff; fill-rule:evenodd; stroke:#000;"/><path id="rect2234" d="M360,0h60v60h-60V0Z" style="fill:#fff; fill-rule:evenodd; stroke:#000;"/><path id="rect2236" d="M420,0h60v60h-60V0Z" style="fill:#fff; fill-rule:evenodd; stroke:#000;"/><path id="rect2238" d="M480,0h60v60h-60V0Z" style="fill:#fff; fill-rule:evenodd; stroke:#000;"/><path id="rect2240" d="M540,0h60v60h-60V0Z" style="fill:#fff; fill-rule:evenodd; stroke:#000;"/><path id="rect2242" d="M600,0h60v60h-60V0Z" style="fill:#c8142b; fill-rule:evenodd; stroke:#000;"/><path id="rect2244" d="M660,0h60v60h-60V0Z" style="fill:#fff; fill-rule:evenodd; stroke:#000;"/><path id="rect2246" d="M720,0h60v60h-60V0Z" style="fill:#fff; fill-rule:evenodd; stroke:#000;"/><path id="rect2248" d="M780,0h120v60h-120V0Z" style="fill:#dfdfdf; fill-rule:evenodd; stroke:#000;"/><path id="rect2250" d="M0,60h90v60H0v-60Z" style="fill:#dfdfdf; fill-rule:evenodd; stroke:#000;"/><path id="rect2252" d="M90,60h60v60h-60v-60Z" style="fill:#fff; fill-rule:evenodd; stroke:#000;"/><path id="rect2254" d="M150,60h60v60h-60v-60Z" style="fill:#c8142b; fill-rule:evenodd; stroke:#000;"/><path id="rect2256" d="M210,60h60v60h-60v-60Z" style="fill:#fff; fill-rule:evenodd; stroke:#000;"/><path id="rect2258" d="M270,60h60v60h-60v-60Z" style="fill:#fff; fill-rule:evenodd; stroke:#000;"/><path id="rect2262" d="M330,60h60v60h-60v-60Z" style="fill:#fff; fill-rule:evenodd; stroke:#000;"/><path id="rect2264" d="M390,60h60v60h-60v-60Z" style="fill:#fff; fill-rule:evenodd; stroke:#000;"/><path id="rect2266" d="M450,60h60v60h-60v-60Z" style="fill:#fff; fill-rule:evenodd; stroke:#000;"/><path id="rect2270" d="M510,60h60v60h-60v-60Z" style="fill:#fff; fill-rule:evenodd; stroke:#000;"/><path id="rect2272" d="M570,60h60v60h-60v-60Z" style="fill:#fff; fill-rule:evenodd; stroke:#000;"/><path id="rect2274" d="M630,60h60v60h-60v-60Z" style="fill:#fff; fill-rule:evenodd; stroke:#000;"/><path id="rect2278" d="M690,60h60v60h-60v-60Z" style="fill:#fff; fill-rule:evenodd; stroke:#000;"/><path id="rect2280" d="M750,60h60v60h-60v-60Z" style="fill:#fff; fill-rule:evenodd; stroke:#000;"/><path id="rect2284" d="M810,60h90v60h-90v-60Z" style="fill:#fff; fill-rule:evenodd; stroke:#000;"/><path id="rect2286" d="M0,120h105v60H0v-60Z" style="fill:#009554; fill-rule:evenodd; stroke:#000;"/><path id="rect2292" d="M105,120h60v60h-60v-60Z" style="fill:#fff; fill-rule:evenodd; stroke:#000;"/><path id="rect2296" d="M165,120h60v60h-60v-60Z" style="fill:#fff; fill-rule:evenodd; stroke:#000;"/><path id="rect2298" d="M225,120h60v60h-60v-60Z" style="fill:#fff; fill-rule:evenodd; stroke:#000;"/><path id="rect2300" d="M285,120h60v60h-60v-60Z" style="fill:#fff; fill-rule:evenodd; stroke:#000;"/><path id="rect2302" d="M345,120h60v60h-60v-60Z" style="fill:#fff; fill-rule:evenodd; stroke:#000;"/><path id="rect2306" d="M405,120h60v60h-60v-60Z" style="fill:#c8142b; fill-rule:evenodd; stroke:#000;"/><path id="rect2308" d="M465,120h60v60h-60v-60Z" style="fill:#c8142b; fill-rule:evenodd; stroke:#000;"/><path id="rect2312" d="M525,120h60v60h-60v-60Z" style="fill:#c8142b; fill-rule:evenodd; stroke:#000;"/><path id="rect2314" d="M585,120h60v60h-60v-60Z" style="fill:#c8142b; fill-rule:evenodd; stroke:#000;"/><path id="rect2316" d="M645,120h60v60h-60v-60Z" style="fill:#fff; fill-rule:evenodd; stroke:#000;"/><path id="rect2318" d="M705,120h60v60h-60v-60Z" style="fill:#fff; fill-rule:evenodd; stroke:#000;"/><path id="rect2320" d="M765,120h135v60h-135v-60Z" style="fill:#dfdfdf; fill-rule:evenodd; stroke:#000;"/><path id="rect2322" d="M0,180h135v60H0v-60Z" style="fill:#dfdfdf; fill-rule:evenodd; stroke:#000;"/><path id="rect2324" d="M135,180h60v60h-60v-60Z" style="fill:#fff; fill-rule:evenodd; stroke:#000;"/><path id="rect2326" d="M195,180h60v60h-60v-60Z" style="fill:#fff; fill-rule:evenodd; stroke:#000;"/><path id="rect2330" d="M255,180h60v60h-60v-60Z" style="fill:#fff; fill-rule:evenodd; stroke:#000;"/><path id="rect2334" d="M315,180h60v60h-60v-60Z" style="fill:#fff; fill-rule:evenodd; stroke:#000;"/><path id="rect2336" d="M375,180h60v60h-60v-60Z" style="fill:#c8142b; fill-rule:evenodd; stroke:#000;"/><path id="rect2338" d="M435,180h60v60h-60v-60Z" style="fill:#fff; fill-rule:evenodd; stroke:#000;"/><path id="rect2340" d="M495,180h60v60h-60v-60Z" style="fill:#fff; fill-rule:evenodd; stroke:#000;"/><path id="rect2342" d="M555,180h60v60h-60v-60Z" style="fill:#fff; fill-rule:evenodd; stroke:#000;"/><path id="rect2344" d="M615,180h60v60h-60v-60Z" style="fill:#fff; fill-rule:evenodd; stroke:#000;"/><path id="rect2346" d="M675,180h60v60h-60v-60Z" style="fill:#fff; fill-rule:evenodd; stroke:#000;"/><path id="rect2348" d="M735,180h165v60h-165v-60Z" style="fill:#dfdfdf; fill-rule:evenodd; stroke:#000;"/><path id="rect2350" d="M0,240h90v60H0v-60Z" style="fill:#dfdfdf; fill-rule:evenodd; stroke:#000;"/><path id="rect2352" d="M810,240h90v60h-90v-60Z" style="fill:#dfdfdf; fill-rule:evenodd; stroke:#000;"/><path id="rect2354" d="M150,240h90v60h-90v-60Z" style="fill:#dfdfdf; fill-rule:evenodd; stroke:#000;"/><path id="rect2360" d="M600,240h90v60h-90v-60Z" style="fill:#dfdfdf; fill-rule:evenodd; stroke:#000;"/><path id="rect2362" d="M240,240h360v60H240v-60Z" style="fill:#009554; fill-rule:evenodd; stroke:#000;"/><path id="rect2364" d="M90,240h60v60h-60v-60Z" style="fill:#efefef; fill-rule:evenodd; stroke:#000;"/><path id="rect2366" d="M690,240h60v60h-60v-60Z" style="fill:#efefef; fill-rule:evenodd; stroke:#000;"/><path id="rect2368" d="M750,240h60v60h-60v-60Z" style="fill:#efefef; fill-rule:evenodd; stroke:#000;"/></g><g id="letters"><path id="text5091" d="M75.35,18.83l-.91-7.77v-4.69h3.61v4.69l-.91,7.77h-1.78M74.48,23.63v-3.46h3.48v3.46h-3.48M75.35,53.63v-11.47h-4.01v-2.36h.26c1.46,0,2.52-.23,3.19-.68.67-.45,1.07-1.21,1.18-2.27h2.68v16.78h-3.3"/><path id="text5103" d="M23.34,14.22v2.59c-.81.55-1.58.96-2.31,1.23-.72.26-1.43.39-2.13.39-.36,0-.72-.03-1.08-.09-.36-.06-.72-.15-1.08-.27-.19-.06-.46-.16-.83-.29-1.71-.59-3.01-.88-3.9-.88-.66,0-1.36.15-2.09.45-.72.29-1.53.75-2.43,1.39v-2.59c.84-.56,1.63-.98,2.39-1.25.76-.28,1.47-.42,2.14-.42.91,0,2.05.23,3.41.68.02,0,.04.01.05.01.14.05.36.12.64.22,1.21.43,2.15.64,2.81.64.66,0,1.35-.14,2.05-.43.7-.29,1.48-.75,2.34-1.37M11.99,35.03h3.02l2.31,4.34h-1.66l-3.67-4.34"/><path id="text5127" d="M136.48,20.44c-.43.66-.93,1.14-1.49,1.45-.56.3-1.23.46-1.99.46-1.23,0-2.18-.34-2.82-1.01-.64-.67-.96-1.66-.96-2.98,0-1.87.54-3.43,1.63-4.7,1.09-1.27,2.44-1.9,4.03-1.9.62,0,1.17.13,1.63.39.46.26.84.64,1.14,1.15l.62-1.15h2.09l-1.72,7.01c-.02.09-.04.18-.06.27-.02.09-.02.16-.02.21,0,.27.09.48.28.62.19.13.46.2.83.2.3,0,.62-.08.95-.23.34-.16.65-.37.94-.66.67-.62,1.18-1.36,1.52-2.19.35-.84.53-1.75.53-2.75,0-1.87-.73-3.41-2.18-4.62-1.45-1.21-3.31-1.82-5.6-1.82-1.1,0-2.13.13-3.08.4-.95.27-1.8.66-2.58,1.18-1.33.89-2.35,2-3.07,3.34-.71,1.34-1.07,2.8-1.07,4.39,0,2.4.81,4.32,2.43,5.75,1.62,1.43,3.78,2.14,6.48,2.14,1.27,0,2.5-.19,3.7-.57,1.21-.38,2.34-.94,3.38-1.66l.96,1.37c-1.2.9-2.46,1.57-3.81,2.03-1.34.45-2.73.68-4.18.68-1.5,0-2.88-.19-4.14-.57-1.26-.38-2.38-.93-3.35-1.68-1.21-.95-2.12-2.04-2.72-3.27-.6-1.23-.9-2.63-.9-4.2,0-1.3.2-2.55.61-3.73.41-1.19,1.02-2.27,1.82-3.23,1.16-1.41,2.55-2.48,4.17-3.21,1.62-.73,3.43-1.09,5.43-1.09,1.32,0,2.56.18,3.71.54,1.16.35,2.18.85,3.04,1.5,1.05.82,1.84,1.76,2.36,2.81.52,1.05.79,2.23.79,3.55,0,1.29-.26,2.48-.77,3.57-.51,1.09-1.24,2.02-2.2,2.79-.55.44-1.14.77-1.79,1.01-.64.23-1.31.34-2,.34-.83,0-1.45-.16-1.88-.49-.41-.33-.63-.81-.64-1.45M137.06,15.43c-.1-.63-.33-1.11-.68-1.44-.34-.34-.8-.5-1.37-.5-.89,0-1.66.48-2.32,1.45-.66.97-.98,2.13-.98,3.49,0,.72.16,1.27.47,1.64.32.38.78.56,1.38.56.65,0,1.24-.25,1.77-.74.54-.49.91-1.13,1.1-1.92l.63-2.54M128.57,53.63c.02-1.5.34-2.77.96-3.81.62-1.05,1.73-2.11,3.33-3.18.24-.16.59-.39,1.05-.68,2.11-1.35,3.16-2.65,3.16-3.9,0-.74-.22-1.33-.67-1.76-.45-.43-1.05-.64-1.83-.64-.84,0-1.5.27-1.96.8-.45.52-.68,1.27-.68,2.25v.14h-3.09c0-1.92.52-3.4,1.55-4.44,1.03-1.04,2.5-1.56,4.41-1.56,1.73,0,3.11.47,4.14,1.42,1.03.94,1.55,2.19,1.55,3.75,0,1.12-.27,2.09-.81,2.91-.54.82-1.58,1.75-3.13,2.8-.33.23-.78.52-1.36.89-1.47.95-2.3,1.66-2.48,2.16h7.62v2.86h-11.75"/><path id="text5139" d="M195.28,13.69l-1.03,2.86h2.94l1.01-2.86h-2.92M195.28,6.47h2.59l-1.71,4.86h2.84l1.73-4.86h2.59l-1.73,4.86h3.32l-.87,2.36h-3.28l-.98,2.84h3.4l-.83,2.34h-3.41l-1.73,4.88h-2.59l1.73-4.88h-2.86l-1.75,4.88h-2.58l1.71-4.88h-3.36l.89-2.34h3.3l1.01-2.84h-3.5l.87-2.36h3.48l1.73-4.86M190.08,48.52h3.22c0,.94.23,1.64.68,2.12.45.47,1.11.7,1.98.7s1.49-.22,1.95-.66c.46-.45.69-1.08.69-1.91s-.27-1.45-.81-1.88c-.53-.43-1.32-.64-2.38-.64-.05,0-.14,0-.26.01-.11,0-.19.01-.25.01v-2.32h.36c.97,0,1.68-.19,2.14-.56.47-.38.7-.96.7-1.75,0-.65-.2-1.16-.6-1.54-.39-.38-.93-.57-1.61-.57-.74,0-1.32.22-1.72.66-.41.44-.61,1.06-.61,1.86v.14h-3.16c.04-1.72.54-3.04,1.51-3.95.98-.92,2.35-1.38,4.12-1.38,1.68,0,3.01.41,4,1.23.98.82,1.48,1.93,1.48,3.32,0,.73-.17,1.38-.5,1.93-.34.55-.84,1.01-1.51,1.37.86.38,1.51.89,1.95,1.56.45.66.67,1.44.67,2.36,0,1.68-.55,3.01-1.65,4-1.1.98-2.61,1.48-4.51,1.48s-3.34-.48-4.36-1.43c-1.02-.96-1.52-2.32-1.52-4.09v-.07"/><path id="text5151" d="M320.43,19.74c0,.52.18.96.53,1.32.35.35.79.53,1.3.53.5,0,.93-.18,1.29-.54.36-.37.54-.8.54-1.31,0-.5-.18-.93-.54-1.28-.35-.36-.78-.54-1.29-.54-.52,0-.95.18-1.3.53-.35.34-.53.77-.53,1.29M317.88,19.74c0-1.22.42-2.25,1.27-3.08.84-.84,1.88-1.25,3.11-1.25,1.2,0,2.23.43,3.07,1.28.85.84,1.28,1.86,1.28,3.06,0,1.2-.43,2.23-1.28,3.09-.85.85-1.88,1.28-3.07,1.28s-2.26-.42-3.11-1.27c-.84-.84-1.27-1.88-1.27-3.11M311.07,24.11l10.01-17.26h1.89l-10.01,17.26h-1.89M310.04,11.22c0,.52.17.95.52,1.3.35.35.79.53,1.3.53.51,0,.94-.18,1.29-.53.36-.36.54-.79.54-1.3s-.18-.93-.54-1.28c-.35-.36-.78-.54-1.29-.54-.52,0-.95.18-1.3.53-.34.34-.52.77-.52,1.29M307.5,11.22c0-1.22.42-2.25,1.27-3.09.84-.85,1.88-1.28,3.09-1.28,1.2,0,2.23.43,3.07,1.29.85.85,1.28,1.88,1.28,3.08s-.43,2.23-1.28,3.08c-.84.84-1.87,1.27-3.07,1.27-1.23,0-2.26-.42-3.11-1.25-.84-.84-1.25-1.87-1.25-3.09M310.85,49.12h3.28c.05.73.3,1.3.74,1.71.44.4,1.02.6,1.76.6.91,0,1.6-.27,2.07-.8.48-.53.73-1.29.73-2.29,0-.93-.25-1.66-.74-2.19-.49-.54-1.17-.81-2.04-.81-.48,0-.91.1-1.28.29-.37.2-.68.48-.94.87l-3.02-.18,1.09-9h9.64v2.84h-7.28l-.43,3.36c.37-.29.79-.5,1.27-.64.48-.15,1.01-.22,1.59-.22,1.67,0,3.02.51,4.04,1.52,1.03,1.02,1.55,2.35,1.55,4,0,1.8-.57,3.25-1.7,4.32-1.13,1.07-2.65,1.61-4.56,1.61-1.73,0-3.12-.44-4.15-1.32-1.02-.89-1.57-2.11-1.63-3.67"/><path id="text5157" d="M373.14,6.52h2.95l5.64,6.57h-2.75l-4.35-4.35-4.37,4.35h-2.75l5.64-6.57M372.15,48.3c0,.96.24,1.72.71,2.29.48.56,1.14.84,1.97.84.77,0,1.38-.27,1.82-.82.44-.55.66-1.31.66-2.29,0-.9-.23-1.6-.68-2.1-.45-.5-1.09-.75-1.91-.75-.8,0-1.43.25-1.89.75-.45.5-.68,1.19-.68,2.07M372.11,43.92c.38-.39.84-.68,1.38-.88.54-.2,1.14-.3,1.8-.3,1.64,0,2.95.5,3.94,1.5.99,1,1.49,2.33,1.49,4,0,1.77-.54,3.19-1.62,4.28-1.08,1.09-2.5,1.63-4.27,1.63-2.04,0-3.59-.7-4.65-2.11-1.05-1.41-1.58-3.46-1.58-6.18,0-2.91.57-5.14,1.7-6.68,1.13-1.55,2.77-2.32,4.9-2.32,1.48,0,2.68.39,3.59,1.16.91.77,1.41,1.82,1.5,3.14h-3.4c-.08-.54-.29-.95-.63-1.22-.34-.27-.82-.41-1.44-.41-.84,0-1.49.37-1.95,1.1-.45.73-.71,1.82-.76,3.29"/><path id="text5163" d="M432.86,16.1l-.89.64c-.36.25-.63.55-.81.9-.18.35-.27.75-.27,1.18,0,.66.23,1.22.68,1.68.45.45,1.02.68,1.7.68.5,0,.98-.1,1.43-.3.46-.21.89-.52,1.28-.91l-3.12-3.87M433.79,12.4l.41-.29c.38-.26.65-.55.83-.87.18-.32.27-.69.27-1.1s-.12-.71-.38-.95c-.24-.23-.57-.35-1-.35-.43,0-.77.12-1.02.36-.25.23-.38.55-.38.96,0,.22.06.46.18.71.12.26.3.53.53.82l.55.7M431.16,13.96l-.68-.89c-.35-.47-.61-.91-.76-1.31-.15-.41-.22-.85-.22-1.3,0-1.25.4-2.24,1.2-2.98.8-.74,1.89-1.11,3.27-1.11,1.32,0,2.36.34,3.13,1.02.77.68,1.15,1.6,1.15,2.75,0,.88-.23,1.66-.68,2.36-.45.69-1.15,1.34-2.11,1.95l2.47,3.05c.23-.38.42-.81.55-1.29.14-.48.24-1.01.29-1.59h3.05c-.09,1.02-.3,1.96-.63,2.82-.34.87-.8,1.66-1.38,2.38l3.14,3.82h-3.98l-1.17-1.44c-.69.63-1.45,1.11-2.27,1.44-.82.32-1.68.48-2.58.48-1.59,0-2.9-.47-3.91-1.42-1.01-.95-1.51-2.15-1.51-3.62,0-1.09.28-2.04.84-2.82.56-.79,1.5-1.55,2.81-2.29M434.66,53.63h-3.5c.12-2.29.68-4.56,1.65-6.81.98-2.25,2.39-4.46,4.21-6.63h-8.25v-2.86h11.89v2.52c-1.84,2.03-3.26,4.18-4.25,6.45-.98,2.27-1.57,4.71-1.75,7.34"/><path id="text5169" d="M493.5,13.21l-2.06,2.91-1.99-1.39,2.25-2.82-3.28-.91.76-2.38,3.15,1.12v-3.36h2.32v3.36l3.15-1.1.79,2.38-3.28.89,2.23,2.8-2.04,1.46-1.99-2.95M490.88,48.76c0,.82.23,1.45.68,1.9.46.45,1.12.67,1.97.67.81,0,1.45-.23,1.91-.68.47-.45.7-1.08.7-1.89s-.24-1.39-.71-1.86c-.48-.47-1.11-.7-1.9-.7-.79,0-1.43.24-1.92.71-.48.48-.73,1.09-.73,1.85M491.14,41.56c0,.65.2,1.15.61,1.5.41.34.99.52,1.75.52.76,0,1.34-.18,1.75-.53.41-.35.62-.85.62-1.49s-.21-1.12-.63-1.48c-.42-.36-1-.54-1.73-.54-.72,0-1.29.18-1.72.55-.42.37-.63.86-.63,1.46M489.94,44.82c-.7-.39-1.21-.85-1.52-1.37-.31-.52-.47-1.19-.47-2,0-1.44.49-2.57,1.48-3.39.98-.82,2.34-1.23,4.08-1.23,1.75,0,3.12.41,4.1,1.23.99.81,1.49,1.94,1.49,3.39,0,.77-.17,1.45-.5,2.02-.34.56-.84,1.02-1.51,1.36.82.38,1.44.91,1.85,1.59.41.67.62,1.49.62,2.46,0,1.63-.54,2.91-1.62,3.84-1.07.93-2.55,1.39-4.43,1.39s-3.39-.46-4.44-1.38-1.58-2.21-1.58-3.86c0-.96.2-1.77.59-2.41.4-.66,1.02-1.2,1.87-1.64"/><path id="text5175" d="M557.86,6.37c-1.08,1.77-1.88,3.56-2.4,5.39-.52,1.83-.79,3.75-.79,5.75s.26,3.91.79,5.74,1.32,3.62,2.4,5.39h-2.47c-1.37-1.87-2.41-3.74-3.12-5.62-.7-1.89-1.05-3.73-1.05-5.51s.35-3.62,1.05-5.51c.71-1.89,1.75-3.77,3.12-5.64h2.47M556.07,42.69c0-.96-.24-1.72-.73-2.27-.48-.56-1.13-.84-1.96-.84-.78,0-1.39.27-1.83.81-.43.54-.64,1.29-.64,2.26,0,.91.23,1.61.68,2.12.45.51,1.09.76,1.91.76.8,0,1.43-.25,1.89-.75.45-.5.68-1.2.68-2.09M556.12,47.06c-.39.39-.85.68-1.38.88-.53.2-1.13.29-1.79.29-1.65,0-2.97-.5-3.96-1.49-.99-.99-1.49-2.32-1.49-3.98,0-1.77.54-3.19,1.62-4.28,1.08-1.09,2.5-1.63,4.27-1.63,2.05,0,3.6.71,4.66,2.12,1.07,1.41,1.61,3.46,1.61,6.16,0,2.91-.57,5.13-1.71,6.68-1.14,1.55-2.78,2.32-4.92,2.32-1.48,0-2.67-.38-3.57-1.15-.91-.77-1.4-1.82-1.49-3.15h3.39c.08.55.29.95.63,1.22.34.27.83.4,1.45.4.84,0,1.49-.37,1.93-1.1.45-.73.7-1.83.76-3.29"/><path id="text5187" d="M667.5,26.9h12v2.39h-12v-2.39M670.21,48.85v-3.21h6.59v3.21h-6.59"/><path id="text5201" d="M733.34,9.32h2.37v5.98h5.84v2.33h-5.84v6h-2.37v-6h-5.84v-2.33h5.84v-5.98M727.5,47.82h14.04v2.33h-14.04v-2.33M727.5,42.78h14.04v2.33h-14.04v-2.33"/><path id="text5427" d="M11.07,95.6v-9.45h-3.41v-2.05h9.17v2.05h-3.39v9.45h-2.37M22.86,94.55c-.29.44-.66.78-1.12,1.02-.46.23-1,.34-1.62.34-.82,0-1.46-.23-1.91-.7-.44-.47-.66-1.14-.66-2,0-.8.22-1.41.66-1.84.45-.42,1.18-.71,2.21-.87.23-.04.54-.08.92-.12.96-.12,1.45-.4,1.45-.84,0-.34-.11-.59-.32-.73-.21-.15-.57-.23-1.07-.23-.46,0-.81.09-1.05.27-.24.18-.37.44-.37.78v.12h-2.12v-.16c0-.87.31-1.55.92-2.05.61-.5,1.46-.75,2.55-.75,1.19,0,2.1.21,2.73.62.64.41.95,1.01.95,1.78v4.83c0,.35.04.62.11.8.07.17.2.3.37.39v.38h-2.37c-.08-.15-.14-.31-.18-.48-.04-.18-.07-.37-.07-.57M22.82,91.42c-.37.17-.8.31-1.28.41-.48.1-.73.16-.74.16-.4.11-.68.26-.84.43-.16.17-.23.41-.23.71,0,.31.1.56.3.75.2.18.48.27.82.27.61,0,1.1-.17,1.45-.52.35-.35.53-.82.53-1.42v-.8M27.04,84.09h2.21v4.07c.28-.44.63-.78,1.05-1,.43-.23.91-.34,1.45-.34,1.03,0,1.86.42,2.52,1.27.65.84.98,1.94.98,3.3,0,1.34-.33,2.43-.98,3.26-.65.83-1.5,1.24-2.55,1.24-.55,0-1.02-.11-1.43-.34-.4-.23-.77-.59-1.09-1.09v1.15h-2.16v-11.51M32.99,91.3c0-.78-.16-1.39-.49-1.84-.33-.45-.78-.67-1.35-.67-.6,0-1.07.22-1.41.66-.33.43-.49,1.05-.49,1.85,0,.86.16,1.52.47,1.97.32.45.78.67,1.38.67s1.08-.22,1.41-.67c.32-.45.48-1.11.48-1.97"/><path id="text5207" d="M789.77,44.37h2.8c.66,0,1.14-.12,1.45-.36.3-.24.45-.62.45-1.13s-.15-.92-.45-1.16c-.3-.24-.79-.36-1.47-.36h-2.79v3.01M789.77,39.39h2.7c.58,0,1.01-.1,1.28-.3.27-.2.41-.52.41-.95s-.13-.73-.4-.91c-.26-.19-.7-.29-1.3-.29h-2.69v2.45M787.5,46.45v-11.51h5.42c1.18,0,2.07.25,2.69.75.62.49.93,1.22.93,2.16,0,.58-.11,1.07-.34,1.46-.23.39-.57.69-1.03.91.59.24,1.04.59,1.33,1.04.3.45.45,1.01.45,1.68,0,1.12-.36,1.98-1.09,2.59s-1.76.91-3.1.91h-5.24M803.45,45.39c-.29.44-.66.78-1.12,1.02-.46.23-1,.34-1.62.34-.82,0-1.46-.23-1.91-.7-.44-.47-.66-1.14-.66-2,0-.8.22-1.41.66-1.84.45-.42,1.18-.71,2.21-.87.23-.04.54-.08.92-.12.96-.12,1.45-.4,1.45-.84,0-.34-.11-.59-.32-.73-.21-.15-.57-.23-1.07-.23-.46,0-.81.09-1.05.27-.24.18-.37.44-.37.78v.12h-2.12v-.16c0-.87.31-1.55.92-2.05.61-.5,1.46-.75,2.55-.75,1.19,0,2.1.21,2.73.62.64.41.95,1.01.95,1.78v4.83c0,.35.04.62.11.8.07.17.2.3.37.39v.38h-2.37c-.08-.15-.14-.31-.18-.48s-.07-.37-.07-.57M803.41,42.27c-.37.17-.8.31-1.28.41-.48.1-.73.16-.74.16-.4.11-.68.26-.84.43-.16.17-.23.41-.23.71s.1.56.3.75c.2.18.48.27.82.27.61,0,1.1-.17,1.45-.52.35-.35.53-.82.53-1.42v-.8M812.72,43.24h2.24c-.09,1.08-.49,1.93-1.18,2.55s-1.58.94-2.67.94c-1.23,0-2.2-.4-2.91-1.2-.7-.81-1.05-1.92-1.05-3.34s.36-2.53,1.07-3.33c.72-.81,1.71-1.21,2.96-1.21,1.1,0,1.98.29,2.64.88.67.58,1.04,1.4,1.12,2.44h-2.26c-.06-.45-.22-.8-.48-1.04-.26-.24-.59-.36-1.01-.36-.56,0-.98.22-1.27.66-.28.44-.41,1.11-.41,1.99,0,.82.14,1.45.43,1.89.29.44.71.66,1.25.66.42,0,.76-.13,1.02-.38.26-.26.42-.64.5-1.14M816.45,46.45v-11.51h2.21v6.04l2.7-3.02h2.73l-2.96,3.15,3.14,5.34h-2.73l-2.03-3.62-.86.93v2.69h-2.21M824.8,43.68h2.27c.02.43.18.76.47.97.29.21.73.31,1.31.31.44,0,.78-.07,1.02-.22.24-.15.37-.36.37-.63,0-.39-.45-.67-1.36-.87-.37-.08-.66-.15-.88-.2-1.1-.28-1.87-.61-2.3-1-.43-.39-.64-.91-.64-1.56,0-.87.31-1.56.94-2.06.63-.51,1.48-.77,2.55-.77,1.14,0,2.03.25,2.67.76.65.51,1,1.22,1.04,2.13h-2.21c-.02-.36-.15-.64-.41-.84-.26-.2-.61-.3-1.07-.3-.43,0-.76.07-.97.2-.21.13-.31.33-.31.59,0,.34.57.64,1.7.9.26.06.47.1.62.14,1.13.27,1.9.59,2.31.96.42.38.62.9.62,1.59,0,.96-.34,1.7-1.02,2.2-.68.51-1.66.76-2.96.76-1.17,0-2.09-.26-2.75-.79-.66-.53-.99-1.25-.99-2.17v-.09M840.02,42.25c0-.85-.16-1.51-.48-1.95-.32-.45-.79-.68-1.41-.68-.6,0-1.07.22-1.38.67-.31.45-.47,1.1-.47,1.96,0,.8.16,1.42.49,1.86.33.44.8.66,1.41.66.57,0,1.02-.22,1.35-.67.33-.45.49-1.06.49-1.84M834.07,49.85v-11.9h2.16v1.15c.33-.5.69-.86,1.09-1.09.41-.23.88-.34,1.43-.34,1.05,0,1.9.41,2.55,1.24.65.82.98,1.91.98,3.25s-.33,2.46-.98,3.31c-.65.84-1.49,1.27-2.52,1.27-.54,0-1.03-.11-1.45-.34-.42-.23-.77-.56-1.05-1v4.46h-2.21M848.7,45.39c-.29.44-.66.78-1.12,1.02-.46.23-1,.34-1.62.34-.82,0-1.46-.23-1.91-.7-.44-.47-.66-1.14-.66-2,0-.8.22-1.41.66-1.84.45-.42,1.18-.71,2.21-.87.23-.04.54-.08.92-.12.96-.12,1.45-.4,1.45-.84,0-.34-.11-.59-.32-.73-.21-.15-.57-.23-1.07-.23-.46,0-.81.09-1.05.27-.24.18-.37.44-.37.78v.12h-2.12v-.16c0-.87.31-1.55.92-2.05.61-.5,1.46-.75,2.55-.75,1.19,0,2.1.21,2.73.62.64.41.95,1.01.95,1.78v4.83c0,.35.04.62.11.8.07.17.2.3.37.39v.38h-2.37c-.08-.15-.14-.31-.18-.48s-.07-.37-.07-.57M848.66,42.27c-.37.17-.8.31-1.28.41-.48.1-.73.16-.74.16-.4.11-.68.26-.84.43-.16.17-.23.41-.23.71s.1.56.3.75c.2.18.48.27.82.27.61,0,1.1-.17,1.45-.52.35-.35.53-.82.53-1.42v-.8M857.97,43.24h2.24c-.09,1.08-.49,1.93-1.18,2.55s-1.58.94-2.67.94c-1.23,0-2.2-.4-2.91-1.2-.7-.81-1.05-1.92-1.05-3.34s.36-2.53,1.07-3.33c.72-.81,1.71-1.21,2.96-1.21,1.1,0,1.98.29,2.64.88.67.58,1.04,1.4,1.12,2.44h-2.26c-.06-.45-.22-.8-.48-1.04-.26-.24-.59-.36-1.01-.36-.56,0-.98.22-1.27.66-.28.44-.41,1.11-.41,1.99,0,.82.14,1.45.43,1.89.29.44.71.66,1.25.66.42,0,.76-.13,1.02-.38.26-.26.42-.64.5-1.14M866.88,43.87h2.27c-.23.9-.69,1.6-1.39,2.11-.69.51-1.54.76-2.54.76-1.23,0-2.2-.41-2.92-1.23-.72-.83-1.08-1.95-1.08-3.36s.35-2.49,1.06-3.29c.71-.8,1.68-1.2,2.91-1.2,1.3,0,2.31.4,3.02,1.19.71.79,1.06,1.91,1.06,3.37,0,.16,0,.28,0,.37,0,.08,0,.15-.02.23h-5.67c.03.67.19,1.17.48,1.51.3.34.72.51,1.27.51.39,0,.71-.08.96-.23.25-.16.45-.4.59-.72M863.57,41.31h3.34c-.02-.57-.17-1.01-.46-1.3-.28-.3-.69-.45-1.22-.45-.49,0-.89.15-1.17.45-.28.3-.45.74-.49,1.3"/><path id="path5439" d="M840,17.65h-42.97" style="fill:none; stroke:#000; stroke-width:3px;"/><path id="path5441" d="M802.5,25.15v-15l-15,7.5,15,7.5Z" style="fill-rule:evenodd;"/><g id="g5459"><path id="path5453" d="M82.5,82.5h-28.48" style="fill:none; stroke:#000; stroke-width:3px;"/><path id="path5455" d="M60,90v-15l-15,7.5,15,7.5Z" style="fill-rule:evenodd;"/><path id="path5457" d="M45,75v15" style="fill:none; stroke:#000; stroke-width:3px;"/></g><g id="g5464"><path id="path5466" d="M45,97.5h28.48" style="fill:none; stroke:#000; stroke-width:3px;"/><path id="path5468" d="M67.5,90v15l15-7.5-15-7.5Z" style="fill-rule:evenodd;"/><path id="path5470" d="M82.5,105v-15" style="fill:none; stroke:#000; stroke-width:3px;"/></g><path id="text5474" d="M107.06,80.56l-1.83-1.78,1.95-2.02,1.88,1.83c.25-.47.44-1,.57-1.61.13-.6.2-1.26.2-1.97,0-1.9-.43-3.37-1.28-4.42-.85-1.05-2.04-1.58-3.57-1.58-1.52,0-2.7.52-3.54,1.57-.84,1.05-1.27,2.52-1.27,4.43,0,1.9.42,3.38,1.27,4.43.84,1.05,2.02,1.57,3.54,1.57.39,0,.76-.04,1.1-.12.35-.08.68-.19.98-.34M109.56,82.92c-.59.39-1.27.69-2.05.89-.77.2-1.62.3-2.53.3-2.58,0-4.63-.82-6.15-2.46-1.52-1.64-2.27-3.85-2.27-6.63s.76-5,2.27-6.63c1.52-1.64,3.57-2.46,6.15-2.46,2.58,0,4.63.82,6.15,2.46,1.53,1.64,2.3,3.85,2.3,6.63,0,1.22-.16,2.34-.47,3.35-.31,1.01-.77,1.89-1.38,2.65l1.88,1.79-1.92,2.02-1.97-1.91"/><path id="text5492" d="M218.53,83.63v-17.26h12.53v3h-9.02v3.68h8.25v2.95h-8.25v4.44h9.45v3.19h-12.95"/><path id="text5500" d="M281.44,73.92h4.17c.91,0,1.57-.18,1.99-.55.43-.37.64-.95.64-1.73s-.21-1.32-.62-1.7c-.41-.39-1.03-.59-1.85-.59h-4.34v4.57M277.89,83.63v-17.26h8.37c1.88,0,3.28.4,4.18,1.21.91.8,1.36,2.04,1.36,3.69,0,1.05-.22,1.93-.67,2.64-.44.7-1.07,1.18-1.9,1.44.75.27,1.28.67,1.59,1.22.32.55.5,1.4.55,2.55l.07,2.04v.07c.02,1.03.25,1.66.67,1.88v.53h-3.89c-.13-.24-.22-.54-.29-.89-.06-.36-.1-.79-.12-1.28l-.05-1.82c-.04-1.07-.24-1.79-.61-2.17-.36-.37-1.01-.56-1.96-.56h-3.76v6.71h-3.55"/><path id="text5504" d="M343.24,83.63v-14.18h-5.12v-3.08h13.76v3.08h-5.09v14.18h-3.55"/><path id="text5518" d="M407.07,83.63h-3.55v-6.43l-6.27-10.83h4.35l3.69,7.44,3.41-7.44h4.05l-5.68,10.83v6.43"/><path id="text5522" d="M458.09,66.11h3.59v10.83c0,1.34.27,2.31.8,2.93.53.61,1.38.91,2.53.91s2.02-.3,2.55-.91c.54-.61.81-1.59.81-2.93v-10.83h3.55v11.21c0,2.12-.59,3.74-1.78,4.88-1.18,1.13-2.88,1.7-5.11,1.7s-3.96-.56-5.16-1.69c-1.19-1.13-1.78-2.76-1.78-4.89v-11.21"/><path id="text5526" d="M523.22,83.63v-17.26h3.55v17.26h-3.55"/><path id="text5530" d="M580.18,75c0,1.9.42,3.38,1.27,4.43.84,1.05,2.02,1.57,3.54,1.57s2.72-.52,3.57-1.57c.85-1.05,1.28-2.53,1.28-4.43s-.43-3.37-1.28-4.42c-.85-1.05-2.04-1.58-3.57-1.58-1.52,0-2.7.52-3.54,1.57-.84,1.05-1.27,2.52-1.27,4.43M576.56,75c0-2.79.76-5,2.27-6.63,1.52-1.64,3.57-2.46,6.15-2.46,2.58,0,4.63.82,6.15,2.46,1.53,1.64,2.3,3.85,2.3,6.63s-.77,4.99-2.3,6.63c-1.52,1.64-3.57,2.46-6.15,2.46s-4.63-.82-6.15-2.46c-1.52-1.64-2.27-3.85-2.27-6.63"/><path id="text5534" d="M641.98,74.36h3.43c.93,0,1.61-.2,2.03-.59.42-.4.63-1.04.63-1.91,0-.82-.21-1.44-.62-1.86-.41-.42-1.03-.63-1.85-.63h-3.62v4.99M641.95,77.49v6.14h-3.55v-17.26h7.68c1.81,0,3.18.47,4.11,1.42.94.94,1.41,2.32,1.41,4.14s-.46,3.16-1.37,4.12c-.91.96-2.22,1.44-3.91,1.44h-4.36"/><path id="text5546" d="M709.25,63.92v2.45c-.07,0-.17,0-.29-.01-.12,0-.21-.01-.26-.01-.79,0-1.32.15-1.61.46-.27.3-.41.93-.41,1.9v2.81c0,1.16-.18,1.98-.53,2.46-.35.48-.98.83-1.9,1.04.91.21,1.55.55,1.9,1.03.35.48.53,1.29.53,2.45v2.82c0,.96.14,1.59.41,1.89s.81.45,1.61.45c.05,0,.13,0,.26-.01s.22-.01.29-.01v2.45c-.11,0-.26,0-.46.01-.2,0-.34.01-.43.01-.78,0-1.43-.05-1.96-.14-.52-.09-.97-.24-1.34-.43-.45-.27-.76-.63-.95-1.08-.18-.45-.27-1.22-.27-2.33v-2.95c0-1.07-.2-1.83-.6-2.27-.4-.45-1.07-.68-2.02-.68-.05,0-.12,0-.23.01-.11,0-.19.01-.25.01v-2.45c.05,0,.14,0,.25.01.11,0,.19.01.23.01.94,0,1.61-.23,2-.68.41-.45.61-1.22.61-2.3v-2.93c0-1.12.09-1.9.27-2.36.19-.45.5-.81.95-1.08.37-.2.81-.34,1.34-.43.52-.09,1.18-.14,1.96-.14.09,0,.24,0,.43.01.2,0,.35.01.46.01M703.1,93.97h5.92v2.5h-2.75v17.38h2.75v2.5h-5.92v-22.37"/><path id="text5554" d="M760.75,63.91h.8c.86,0,1.55.05,2.07.14.52.09.96.24,1.31.45.45.25.76.61.94,1.08.19.46.28,1.23.28,2.32v2.95c0,1.07.2,1.83.6,2.29.4.45,1.07.67,2.02.67.05,0,.12,0,.23-.01.11,0,.19-.01.25-.01v2.45h-.43c-.98,0-1.66.22-2.06.66-.4.44-.6,1.2-.6,2.27v2.95c0,1.12-.09,1.9-.28,2.36-.18.45-.49.8-.94,1.05-.37.2-.81.34-1.34.43-.52.09-1.18.14-1.96.14-.09,0-.24,0-.43-.01-.2,0-.35-.01-.46-.01v-2.45c.07,0,.17,0,.29.01s.21.01.26.01c.79,0,1.32-.15,1.59-.46.28-.3.42-.92.42-1.88v-2.8c0-1.17.18-2,.53-2.47.35-.48.98-.83,1.9-1.03-.91-.21-1.55-.56-1.9-1.04-.35-.48-.53-1.3-.53-2.46v-2.84c0-.95-.14-1.58-.42-1.88-.27-.3-.8-.46-1.59-.46-.05,0-.13,0-.26.01-.12,0-.22.01-.29.01v-2.45M767.01,93.96v22.37h-5.93v-2.5h2.77v-17.38h-2.77v-2.5h5.93"/><path id="text5564" d="M823.8,62.88h2.41v24h-2.41v-24M827.1,113.44l-5.81-19.93h1.58l5.84,19.93h-1.61"/><path id="text5641" d="M119.97,129.83l-2.39,7.35h4.79l-2.4-7.35M117.91,126.37h4.1l6.22,17.26h-3.73l-1.17-3.55h-6.69l-1.14,3.55h-3.74l6.14-17.26"/><path id="text5645" d="M172.98,138.29h3.5c.13.95.52,1.65,1.16,2.11.64.45,1.57.68,2.78.68,1.03,0,1.81-.18,2.33-.55.52-.37.79-.91.79-1.63,0-1.05-1.5-1.91-4.51-2.6-.04,0-.07-.02-.11-.02-.08-.02-.2-.04-.36-.08-1.61-.35-2.76-.75-3.45-1.18-.61-.39-1.07-.91-1.39-1.57-.32-.66-.48-1.45-.48-2.34,0-1.68.57-2.96,1.71-3.86,1.14-.9,2.79-1.35,4.95-1.35,2.02,0,3.59.48,4.72,1.43,1.14.95,1.74,2.3,1.8,4.03h-3.41c-.06-.84-.38-1.47-.96-1.91-.58-.44-1.4-.66-2.47-.66-.93,0-1.65.18-2.16.55-.5.36-.75.88-.75,1.55,0,.91.98,1.6,2.94,2.05.53.13.95.22,1.24.29,1.26.32,2.15.57,2.67.75.53.18.99.38,1.38.6.7.39,1.23.91,1.58,1.56.35.64.53,1.41.53,2.31,0,1.8-.61,3.19-1.82,4.18-1.21.98-2.92,1.48-5.12,1.48s-3.88-.5-5.11-1.51-1.9-2.44-1.99-4.3"/><path id="text5649" d="M236.16,140.51h2.85c1.65,0,2.84-.43,3.57-1.29.74-.87,1.11-2.27,1.11-4.21,0-1.93-.34-3.35-1.03-4.25-.69-.91-1.76-1.36-3.22-1.36h-3.28v11.11M232.68,143.63v-17.26h6.76c2.65,0,4.62.71,5.92,2.14,1.3,1.43,1.96,3.6,1.96,6.5,0,1.58-.24,2.97-.73,4.17-.48,1.2-1.17,2.17-2.09,2.91-.69.55-1.47.94-2.34,1.18-.88.23-2.1.35-3.68.35h-5.8"/><path id="text5653" d="M293.98,143.63v-17.26h12.05v3h-8.54v3.91h7.49v3h-7.49v7.35h-3.5"/><path id="text5657" d="M365.18,141.57c-.64.87-1.37,1.5-2.19,1.91-.81.41-1.77.61-2.87.61-2.41,0-4.37-.84-5.87-2.51-1.49-1.68-2.24-3.88-2.24-6.61s.75-4.95,2.24-6.6c1.49-1.65,3.48-2.47,5.96-2.47,2.16,0,3.93.52,5.3,1.56,1.37,1.03,2.18,2.45,2.44,4.27h-3.62c-.22-.9-.67-1.58-1.35-2.05-.67-.47-1.55-.7-2.64-.7-1.45,0-2.58.53-3.41,1.59-.82,1.05-1.23,2.52-1.23,4.38s.43,3.34,1.29,4.41,2.04,1.59,3.54,1.59c1.12,0,2.07-.33,2.82-1s1.23-1.57,1.41-2.73h-3.91v-2.95h7.15v9.34h-2.38l-.43-2.04"/><path id="text5679" d="M143.15,203.63v-3l9.39-11.13h-9.2v-3.13h13.51v3l-9.41,11.14h9.2v3.12h-13.49"/><path id="text5683" d="M202.37,203.63l5.43-8.81-5.43-8.45h4.1l3.53,6.04,3.5-6.04h4.12l-5.43,8.43,5.43,8.84h-4.1l-3.53-5.98-3.53,5.98h-4.1"/><path id="text5687" d="M277.88,197.68c-.13,1.96-.89,3.52-2.27,4.68-1.38,1.16-3.17,1.73-5.39,1.73-2.55,0-4.54-.8-5.96-2.39-1.41-1.59-2.12-3.83-2.12-6.7s.72-5.19,2.17-6.75c1.45-1.56,3.52-2.34,6.23-2.34,2.2,0,3.94.54,5.21,1.62,1.28,1.07,1.98,2.59,2.11,4.55h-3.5c-.15-.98-.55-1.72-1.2-2.23-.65-.52-1.52-.77-2.62-.77-1.56,0-2.75.5-3.56,1.51-.81,1.01-1.22,2.48-1.22,4.42s.4,3.32,1.21,4.35c.81,1.02,1.96,1.54,3.46,1.54,1.08,0,1.96-.27,2.65-.82.69-.55,1.13-1.35,1.34-2.38h3.48"/><path id="text5691" d="M328.34,203.63l-5.95-17.26h3.94l3.67,12.91,3.74-12.91h3.89l-5.88,17.26h-3.4"/><path id="text5699" d="M442.89,203.63v-17.26h3.71l7.01,11.86v-11.86h3.5v17.26h-3.67l-7.05-11.86v11.86h-3.5"/><path id="text5703" d="M501.33,203.63v-17.26h5.25l3.43,13.14,3.39-13.14h5.27v17.26h-3.33v-13.92l-3.5,13.92h-3.63l-3.55-13.92v13.92h-3.33"/><path id="text5725" d="M658.22,134.65v-3.55h3.55v3.55h-3.55M658.22,143.63v-3.53h3.55v3.53h-3.55M658.25,164.65v-3.55h3.53v3.55h-3.53M658.25,177.69v-1.37c.66-.19,1.14-.48,1.45-.87s.47-.9.47-1.52v-.29h-1.95v-3.53h3.55v3.39c0,1.17-.3,2.11-.89,2.81-.59.71-1.47,1.17-2.64,1.38"/><path id="text5731" d="M720.79,126.78h2.25v6.55h-2.25v-6.55M716.96,126.78h2.25v6.55h-2.25v-6.55M718.89,156.78h2.25v6.55h-2.25v-6.55"/><path id="text5737" d="M772.5,140.61v-11.51h8.35v2h-6.02v2.45h5.5v1.97h-5.5v2.96h6.3v2.12h-8.63M782.74,140.61v-8.49h2.23v1.01c.32-.41.69-.72,1.12-.92.43-.21.91-.31,1.45-.31.94,0,1.64.24,2.1.73.47.48.7,1.22.7,2.2v5.79h-2.27v-5.13c0-.61-.1-1.04-.31-1.3-.2-.26-.54-.39-1-.39-.54,0-.96.16-1.27.48-.31.32-.47.75-.47,1.3v5.04h-2.27M796.08,140.67c-.21,0-.46.01-.75.02-.29.02-.47.02-.55.02-.87,0-1.47-.16-1.79-.48-.32-.33-.48-.97-.48-1.93v-4.59h-1.12v-1.59h1.12v-2.32h2.25v2.32h1.31v1.59h-1.31v4.7c0,.22.05.37.15.45.1.07.3.1.61.1h.55v1.71M802.63,138.03h2.27c-.23.9-.69,1.6-1.39,2.11-.69.51-1.54.76-2.54.76-1.23,0-2.2-.41-2.92-1.23-.72-.83-1.08-1.95-1.08-3.36s.35-2.49,1.06-3.29c.71-.8,1.68-1.2,2.91-1.2,1.3,0,2.31.4,3.02,1.19.71.79,1.06,1.91,1.06,3.37,0,.16,0,.28,0,.37,0,.08,0,.15-.02.23h-5.67c.03.67.19,1.17.48,1.51.3.34.72.51,1.27.51.39,0,.71-.08.96-.23.25-.16.45-.4.59-.72M799.32,135.47h3.34c-.02-.57-.17-1.01-.46-1.3-.28-.3-.69-.45-1.22-.45-.49,0-.89.15-1.17.45-.28.3-.45.74-.49,1.3M806.52,140.61v-8.49h2.11v1.45c.3-.58.64-1.01,1.04-1.28.4-.28.87-.41,1.41-.41.09,0,.16,0,.2,0,.05,0,.09,0,.12,0v2.3s-.75,0-.75,0c-.62,0-1.09.16-1.4.48-.31.32-.47.8-.47,1.44v4.49h-2.27"/><path id="path5745" d="M787.5,172.5v-15l-15,7.5,15,7.5Z" style="fill-rule:evenodd;"/><path id="path5747" d="M810,150v15h-30" style="fill:none; stroke:#000; stroke-width:3px;"/><g id="g5790"><g id="text5753" style="isolation:isolate;"><text transform="translate(14.04 201.2)" style="font-family:Arial-BoldMT, Arial; font-size:16px; font-weight:700; isolation:isolate;"><tspan x="0" y="0">Shift</tspan></text></g><path id="path5757" d="M27.25,207.13l-11.25,15h7.5v7.5h7.5v-7.5h7.5l-11.25-15Z" style="fill:none; stroke:#000; stroke-width:2px;"/></g><g id="g5795"><g id="text5797" style="isolation:isolate;"><text transform="translate(741.54 201.2)" style="font-family:Arial-BoldMT, Arial; font-size:16px; font-weight:700; isolation:isolate;"><tspan x="0" y="0">Shift</tspan></text></g><path id="path5801" d="M754.75,207.13l-11.25,15h7.5v7.5h7.5v-7.5h7.5l-11.25-15Z" style="fill:none; stroke:#000; stroke-width:2px;"/></g><path id="text5803" d="M576.9,189.64v2.57l-10.46,4.28,10.46,4.27v2.57l-13.8-5.68v-2.33l13.8-5.66M568.22,237.69v-1.37c.66-.19,1.14-.48,1.45-.87s.47-.9.47-1.52v-.29h-1.92v-3.53h3.55v3.39c0,1.16-.3,2.1-.9,2.81-.59.71-1.48,1.17-2.65,1.38"/><path id="text5813" d="M623.1,189.64l13.8,5.66v2.33l-13.8,5.68v-2.57l10.49-4.27-10.49-4.28v-2.57M628.22,233.63v-3.53h3.53v3.53h-3.53"/><path id="text5819" d="M688.45,198.62c0-.09,0-.2-.01-.34,0-.15-.01-.26-.01-.33,0-.69.07-1.26.22-1.71.15-.46.39-.89.71-1.29.25-.3.62-.64,1.11-1.02.5-.38.82-.66.97-.83.31-.35.53-.67.64-.95.12-.28.18-.59.18-.93,0-.74-.21-1.32-.62-1.73-.41-.41-.99-.62-1.73-.62-.74,0-1.33.25-1.76.75-.42.49-.65,1.19-.69,2.09h-3.3v-.36c0-1.65.52-2.96,1.56-3.94,1.05-.98,2.45-1.48,4.22-1.48,1.8,0,3.24.46,4.3,1.39,1.07.92,1.61,2.16,1.61,3.71,0,.55-.06,1.04-.19,1.48-.12.43-.3.82-.55,1.18-.32.45-.82.95-1.49,1.48-.66.52-1.07.85-1.21.97-.3.29-.51.59-.64.91-.12.32-.19.7-.19,1.15,0,.04,0,.11.01.2s.01.16.01.21h-3.15M688.28,203.63v-3.43h3.46v3.43h-3.46M686.31,235.86l5.81-19.93h1.61l-5.84,19.93h-1.58"/><path id="text5827" d="M18,271.79c-.09,1.31-.59,2.35-1.52,3.12-.92.77-2.11,1.16-3.59,1.16-1.7,0-3.03-.53-3.98-1.59-.94-1.06-1.41-2.55-1.41-4.47,0-1.96.48-3.46,1.45-4.5.96-1.04,2.35-1.56,4.16-1.56,1.47,0,2.63.36,3.48,1.08.85.71,1.32,1.72,1.41,3.03h-2.34c-.1-.65-.36-1.15-.8-1.48-.43-.34-1.02-.52-1.75-.52-1.04,0-1.83.34-2.38,1.01-.54.67-.81,1.65-.81,2.95,0,1.25.27,2.22.8,2.9.54.68,1.31,1.02,2.3,1.02.72,0,1.31-.18,1.77-.55.46-.37.76-.9.89-1.59h2.32M23.47,275.8c-.21,0-.46.01-.75.02-.29.02-.47.02-.55.02-.87,0-1.47-.16-1.79-.48-.32-.33-.48-.97-.48-1.93v-4.59h-1.12v-1.59h1.12v-2.32h2.25v2.32h1.31v1.59h-1.31v4.7c0,.22.05.37.15.45.1.07.3.1.61.1h.55v1.71M24.79,275.74v-8.49h2.11v1.45c.3-.58.64-1.01,1.04-1.28.4-.28.87-.41,1.41-.41.09,0,.16,0,.2,0,.05,0,.09,0,.12,0v2.3s-.75,0-.75,0c-.62,0-1.09.16-1.4.48-.31.32-.47.8-.47,1.44v4.49h-2.27M31.02,275.74v-11.51h2.27v11.51h-2.27"/><path id="text5827-2" d="M17.32,151.79c-.09,1.31-.59,2.35-1.52,3.12-.92.77-2.11,1.16-3.59,1.16-1.7,0-3.03-.53-3.98-1.59-.94-1.06-1.41-2.55-1.41-4.47,0-1.96.48-3.46,1.45-4.5.96-1.04,2.35-1.56,4.16-1.56,1.47,0,2.63.36,3.48,1.08.85.71,1.32,1.72,1.41,3.03h-2.34c-.1-.65-.36-1.15-.8-1.48-.43-.34-1.02-.52-1.75-.52-1.04,0-1.83.34-2.38,1.01-.54.67-.81,1.65-.81,2.95,0,1.25.27,2.22.8,2.9.54.68,1.31,1.02,2.3,1.02.72,0,1.31-.18,1.77-.55.46-.37.76-.9.89-1.59h2.32M22.79,155.8c-.21,0-.46.01-.75.02-.29.02-.47.02-.55.02-.87,0-1.47-.16-1.79-.48-.32-.33-.48-.97-.48-1.93v-4.59h-1.12v-1.59h1.12v-2.32h2.25v2.32h1.31v1.59h-1.31v4.7c0,.22.05.37.15.45.1.07.3.1.61.1h.55v1.71M24.11,155.74v-8.49h2.11v1.45c.3-.58.64-1.01,1.04-1.28.4-.28.87-.41,1.41-.41.09,0,.16,0,.2,0,.05,0,.09,0,.12,0v2.3s-.75,0-.75,0c-.62,0-1.09.16-1.4.48-.31.32-.47.8-.47,1.44v4.49h-2.27M30.34,155.74v-11.51h2.27v11.51h-2.27"/><path id="text5831" d="M162.97,266.5l-1.59,4.9h3.2l-1.6-4.9M161.59,264.19h2.73l4.15,11.51h-2.48l-.78-2.37h-4.46l-.76,2.37h-2.49l4.09-11.51M169.54,275.7v-11.51h2.27v11.51h-2.27M177.64,275.76c-.21,0-.46.01-.75.02-.29.02-.47.02-.55.02-.87,0-1.47-.16-1.79-.48-.32-.33-.48-.97-.48-1.93v-4.59h-1.12v-1.59h1.12v-2.32h2.25v2.32h1.31v1.59h-1.31v4.7c0,.22.05.37.15.45.1.07.3.1.61.1h.55v1.71"/><path id="text5839" d="M828,271.79c-.09,1.31-.59,2.35-1.52,3.12-.92.77-2.11,1.16-3.59,1.16-1.7,0-3.03-.53-3.98-1.59-.94-1.06-1.41-2.55-1.41-4.47s.48-3.46,1.45-4.5c.96-1.04,2.35-1.56,4.16-1.56,1.47,0,2.63.36,3.48,1.08.85.71,1.32,1.72,1.41,3.03h-2.34c-.1-.65-.36-1.15-.8-1.48-.43-.34-1.02-.52-1.75-.52-1.04,0-1.83.34-2.38,1.01s-.81,1.65-.81,2.95.27,2.22.8,2.9c.54.68,1.31,1.02,2.3,1.02.72,0,1.31-.18,1.77-.55.46-.37.76-.9.89-1.59h2.32M833.47,275.8c-.21,0-.46.01-.75.02-.29.02-.47.02-.55.02-.87,0-1.47-.16-1.79-.48-.32-.33-.48-.97-.48-1.93v-4.59h-1.12v-1.59h1.12v-2.32h2.25v2.32h1.31v1.59h-1.31v4.7c0,.22.05.37.15.45.1.07.3.1.61.1h.55v1.71M834.79,275.74v-8.49h2.11v1.45c.3-.58.64-1.01,1.04-1.28.4-.28.87-.41,1.41-.41.09,0,.16,0,.2,0,.05,0,.09,0,.12,0v2.3s-.75,0-.75,0c-.62,0-1.09.16-1.4.48s-.47.8-.47,1.44v4.49h-2.27M841.02,275.74v-11.51h2.27v11.51h-2.27"/><path id="text5872" d="M108.95,264.02l-3.3-11.51h2.45l1.97,8.12,1.66-8.12h2.52l1.66,8.12,1.97-8.12h2.43l-3.29,11.51h-2.26l-1.78-8.81-1.79,8.81h-2.26M121.5,254.58v-2.07h2.27v2.07h-2.27M121.5,264.02v-8.49h2.27v8.49h-2.27M125.8,264.02v-8.49h2.23v1.01c.32-.41.69-.72,1.12-.92.43-.21.91-.31,1.45-.31.94,0,1.64.24,2.1.73.47.48.7,1.22.7,2.2v5.79h-2.27v-5.13c0-.61-.1-1.04-.31-1.3-.2-.26-.54-.39-1-.39-.54,0-.96.16-1.27.48-.31.32-.47.75-.47,1.3v5.04h-2.27M106.65,284.02v-11.51h2.37v4.73l4.49-4.73h2.96l-4.59,4.66,5.01,6.85h-2.89l-3.75-5.27-1.23,1.22v4.05h-2.37M122.94,281.44h2.27c-.23.9-.69,1.6-1.39,2.11-.69.51-1.54.76-2.54.76-1.23,0-2.2-.41-2.92-1.23-.72-.83-1.08-1.95-1.08-3.36s.35-2.49,1.06-3.29c.71-.8,1.68-1.2,2.91-1.2,1.3,0,2.31.4,3.02,1.19.71.79,1.06,1.91,1.06,3.37,0,.16,0,.28,0,.37,0,.08,0,.15-.02.23h-5.67c.03.67.19,1.17.48,1.51.3.34.72.51,1.27.51.39,0,.71-.08.96-.23.25-.16.45-.4.59-.72M119.62,278.88h3.34c-.02-.57-.17-1.01-.46-1.3-.28-.3-.69-.45-1.22-.45-.49,0-.89.15-1.17.45-.28.3-.45.74-.49,1.3M127.16,287.43v-1.84c.07.01.15.02.23.02.08,0,.18,0,.3,0,.45,0,.78-.11,1.01-.32.22-.21.34-.52.34-.95,0-.03,0-.07-.02-.12-.01-.05-.02-.09-.03-.12l-3.06-8.59h2.5l1.79,6.12,1.74-6.12h2.39l-3.49,10.02c-.26.75-.59,1.26-.98,1.53-.39.28-.98.41-1.76.41-.14,0-.29,0-.45-.02-.16-.01-.33-.03-.51-.05"/><path id="text5878" d="M708.95,264.02l-3.3-11.51h2.45l1.97,8.12,1.66-8.12h2.52l1.66,8.12,1.97-8.12h2.43l-3.29,11.51h-2.26l-1.78-8.81-1.79,8.81h-2.26M721.5,254.58v-2.07h2.27v2.07h-2.27M721.5,264.02v-8.49h2.27v8.49h-2.27M725.8,264.02v-8.49h2.23v1.01c.32-.41.69-.72,1.12-.92.43-.21.91-.31,1.45-.31.94,0,1.64.24,2.1.73.47.48.7,1.22.7,2.2v5.79h-2.27v-5.13c0-.61-.1-1.04-.31-1.3-.2-.26-.54-.39-1-.39-.54,0-.96.16-1.27.48-.31.32-.47.75-.47,1.3v5.04h-2.27M706.65,284.02v-11.51h2.37v4.73l4.49-4.73h2.96l-4.59,4.66,5.01,6.85h-2.89l-3.75-5.27-1.23,1.22v4.05h-2.37M722.94,281.44h2.27c-.23.9-.69,1.6-1.39,2.11-.69.51-1.54.76-2.54.76-1.23,0-2.2-.41-2.92-1.23-.72-.83-1.08-1.95-1.08-3.36s.35-2.49,1.06-3.29c.71-.8,1.68-1.2,2.91-1.2,1.3,0,2.31.4,3.02,1.19.71.79,1.06,1.91,1.06,3.37,0,.16,0,.28,0,.37,0,.08,0,.15-.02.23h-5.67c.03.67.19,1.17.48,1.51.3.34.72.51,1.27.51.39,0,.71-.08.96-.23.25-.16.45-.4.59-.72M719.62,278.88h3.34c-.02-.57-.17-1.01-.46-1.3-.28-.3-.69-.45-1.22-.45-.49,0-.89.15-1.17.45-.28.3-.45.74-.49,1.3M727.16,287.43v-1.84c.07.01.15.02.23.02.08,0,.18,0,.3,0,.45,0,.78-.11,1.01-.32.22-.21.34-.52.34-.95,0-.03,0-.07-.02-.12s-.02-.09-.03-.12l-3.06-8.59h2.5l1.79,6.12,1.74-6.12h2.39l-3.49,10.02c-.26.75-.59,1.26-.98,1.53-.39.28-.98.41-1.76.41-.14,0-.29,0-.45-.02s-.33-.03-.51-.05"/><path id="text5884" d="M759.98,275.61v-11.51h3.5l2.29,8.76,2.26-8.76h3.52v11.51h-2.22v-9.28l-2.34,9.28h-2.42l-2.37-9.28v9.28h-2.22M778.99,273.03h2.27c-.23.9-.69,1.6-1.39,2.11-.69.51-1.54.76-2.54.76-1.23,0-2.2-.41-2.92-1.23-.72-.83-1.08-1.95-1.08-3.36s.35-2.49,1.06-3.29c.71-.8,1.68-1.2,2.91-1.2,1.3,0,2.31.4,3.02,1.19.71.79,1.06,1.91,1.06,3.37,0,.16,0,.28,0,.37,0,.08,0,.15-.02.23h-5.67c.03.67.19,1.17.48,1.51.3.34.72.51,1.27.51.39,0,.71-.08.96-.23.25-.16.45-.4.59-.72M775.68,270.47h3.34c-.02-.57-.17-1.01-.46-1.3-.28-.3-.69-.45-1.22-.45-.49,0-.89.15-1.17.45-.28.3-.45.74-.49,1.3M782.88,275.61v-8.49h2.23v1.01c.32-.41.69-.72,1.12-.92.43-.21.91-.31,1.45-.31.94,0,1.64.24,2.1.73.47.48.7,1.22.7,2.2v5.79h-2.27v-5.13c0-.61-.1-1.04-.31-1.3-.2-.26-.54-.39-1-.39-.54,0-.96.16-1.27.48-.31.32-.47.75-.47,1.3v5.04h-2.27M800.02,267.12v8.49h-2.23v-1.01c-.32.41-.7.72-1.13.93-.43.2-.91.3-1.45.3-.93,0-1.63-.24-2.1-.73-.46-.49-.7-1.22-.7-2.2v-5.79h2.27v5.13c0,.6.1,1.04.3,1.3.2.26.54.38,1.01.38.53,0,.95-.16,1.27-.48.32-.32.48-.76.48-1.31v-5.02h2.27"/><path id="text5831-1" d="M612.97,266.5l-1.59,4.9h3.2l-1.6-4.9M611.59,264.19h2.73l4.15,11.51h-2.48l-.78-2.37h-4.46l-.76,2.37h-2.49l4.09-11.51M619.54,275.7v-11.51h2.27v11.51h-2.27M627.64,275.76c-.21,0-.46.01-.75.02-.29.02-.47.02-.55.02-.87,0-1.47-.16-1.79-.48-.32-.33-.48-.97-.48-1.93v-4.59h-1.12v-1.59h1.12v-2.32h2.25v2.32h1.31v1.59h-1.31v4.7c0,.22.05.37.15.45.1.07.3.1.61.1h.55v1.71"/><path id="path5801-2" d="M412.75,136.24l15,11.25v-7.5h7.5v-7.5h-7.5v-7.5l-15,11.25Z"/><path id="path5801-3" d="M408.75,210l15,11.25v-7.5h7.5v-7.5h-7.5v-7.5l-15,11.25Z"/><path id="path5801-4" d="M483.16,146.72l11.25-15h-7.5v-7.5h-7.5v7.5h-7.5l11.25,15Z"/><path id="path5801-5" d="M542.33,123.34l-11.25,15h7.5v7.5h7.5v-7.5h7.5l-11.25-15Z"/><path id="path5801-6" d="M612.74,136.24l-15,11.25v-7.5h-7.5v-7.5h7.5v-7.5l15,11.25Z"/><path id="path5801-7" d="M207.47,90l-15,11.25v-7.5h-7.5v-7.5h7.5v-7.5l15,11.25Z"/><text transform="translate(605 36.47)" style="font-family:Helvetica-Bold, Helvetica; font-size:18px; font-weight:700;"><tspan x="0" y="0">Home</tspan></text><text transform="translate(253 36.47)" style="font-family:Helvetica-Bold, Helvetica; font-size:18px; font-weight:700;"><tspan x="0" y="0">End</tspan></text><text transform="translate(158.28 96.47)" style="font-family:Helvetica-Bold, Helvetica; font-size:18px; font-weight:700;"><tspan x="0" y="0">C+</tspan></text><text transform="translate(381.93 216.47)" style="font-family:Helvetica-Bold, Helvetica; font-size:18px; font-weight:700;"><tspan x="0" y="0">C+</tspan></text></g></svg>