<?xml version='1.0' encoding='utf-8'?>
<svg xmlns="http://www.w3.org/2000/svg" enable-background="new 0 0 5000 285.2" version="1.1" viewBox="0 0 5e3 285.2"> <path d="m4379.1 140.4c-39.9-29-58.7-57.7-56.4-85.8 5.1-61.2 96.4-60.2 104.8 1.2 3.6 26.2-15 57.2-39.6 66.1-14 5-16.8 11.2-5 11.2 18.1 0 45.1-26.1 52.2-50.3 12.8-43.9-16.1-82.8-61.5-82.8-81.2 0-87.6 107.6-8.8 148.3 73.6 38.1 81.8 122.7 12.3 127.1-59.2 3.7-70.1-79.3-13.8-104.7 10.2-4.6 12.6-9.4 6-11.9-9.4-3.6-39.4 22.6-49.4 43.1-16.4 33.8 1.8 74 36.8 81.2 65.3 13.4 106.4-43.2 70.9-97.6-8.5-12.9-23.7-27-48.5-45.1z"/> <path d="m620.9 140.4c39.9-29 58.7-57.7 56.4-85.8-5.1-61.2-96.4-60.2-104.8 1.2-3.6 26.2 15 57.2 39.6 66.1 14 5 16.8 11.2 5 11.2-18.1 0-45.1-26.1-52.2-50.3-12.8-43.9 16.1-82.8 61.5-82.8 81.2 0 87.6 107.6 8.8 148.3-73.5 38.1-81.7 122.7-12.2 127.1 59.2 3.7 70.1-79.3 13.8-104.7-10.2-4.6-12.6-9.4-6-11.9 9.4-3.6 39.4 22.6 49.4 43.1 16.4 33.8-1.8 74-36.8 81.2-65.3 13.4-106.4-43.2-70.9-97.6 8.4-12.9 23.6-27 48.4-45.1z"/> <path d="m4604.2 150.1c-37.3-33.1-49.6-64.1-33.8-85.2 25.5-34 74.8-1 53.3 35.7-5.9 10.1-19 20.4-25.9 20.4-6.5 0-13.5 6.7-8.9 8.5 6.6 2.6 23.4-3.3 32.7-11.6 34.9-30.6 14.2-80.6-31.3-75.9-47.1 4.9-54.4 60.7-13.2 100.4 47.4 45.6 55.2 59.7 43.8 79.5-19.8 34.5-73 9.4-61.5-29 3.1-10.3 19.5-28.3 25.9-28.3 1.8 0 3.2-1.8 3.2-3.9 0-6.3-14.2-2.1-23.7 7-28.6 27.4-19.2 71 17.1 79.2 24.4 5.5 48.4-9.2 55-33.5 5.8-21.9-1.1-35.2-32.7-63.3z"/> <path d="m395.8 150.1c37.3-33.1 49.6-64.1 33.8-85.2-25.5-34-74.8-1-53.3 35.7 5.9 10.1 19 20.4 25.9 20.4 6.5 0 13.5 6.7 8.9 8.5-6.6 2.6-23.4-3.3-32.7-11.6-34.9-30.6-14.2-80.6 31.3-75.9 47.1 4.9 54.4 60.7 13.2 100.4-47.4 45.6-55.2 59.7-43.8 79.5 19.8 34.5 73 9.4 61.5-29-3.1-10.3-19.5-28.3-25.9-28.3-1.8 0-3.2-1.8-3.2-3.9 0-6.3 14.2-2.1 23.7 7 28.6 27.4 19.2 71-17.1 79.2-24.4 5.5-48.4-9.2-55-33.5-5.8-21.9 1.1-35.2 32.7-63.3z"/> <path d="m4776.1 145c-12.4-5-15.2-6.9-10.3-6.9 39.9-0.4 67.5-60 32-68.9-14.7-3.7-21 5.4-8.3 11.9 20.6 10.6-3.6 49.6-30.7 49.6-4.4 0-8 1.2-8 2.7 0 3.8-17.2 0.9-64 2.2 8.6 8.6 6.3 9.6 38.7 11.3 44.8 2.3 68.5 13.9 72.6 35.6 2.9 15.3-9.3 24.2-18.1 13.2-2.7-3.3-5.7-4.7-8.3-3.7-10.2 3.9 3.1 16.6 3.1 16.4 28.5 28.6 79.1-31.9 1.3-63.4z"/> <path d="m223.9 145c12.4-5 15.2-6.9 10.3-6.9-39.9-0.4-67.5-60-32-68.9 14.7-3.7 21 5.4 8.3 11.9-20.6 10.6 3.6 49.6 30.7 49.6 4.4 0 8 1.2 8 2.7 0 3.8 17.2 0.9 64 2.2-8.6 8.6-6.3 9.6-38.7 11.3-44.8 2.3-68.5 13.9-72.6 35.6-2.9 15.3 9.3 24.2 18.1 13.2 2.7-3.3 5.7-4.7 8.3-3.7 10.2 3.9-3.1 16.6-3.1 16.4-28.5 28.6-79.1-31.9-1.3-63.4z"/> <path d="m4930.4 144.8c-11.5-3.4-13.5-6.9-4.1-6.9 29.4 0 43.6-40.2 18-50.9-13.3-5.5-20.1 3.1-8.4 10.7 13.9 9.1 4.8 25-18.2 31.8-27.3 8.1-12.9 8.3-49 8.3l11.2-9.8c25.6-22.6 16.1-61.9-13.7-56.2-13.8 2.6-16.7 15.2-3.6 15.2 20.5 0 21.3 22.1 1.3 37.2-10.3 7.8-22.3 10.8-50.4 12.6-39.2 2.5-40.2 8.4-1.6 9.2 14 0.3 26.9 1.7 28.7 3 1.8 1.4 8 4.5 13.7 7 20.2 8.8 31.7 29 23.5 41.5-4 6.2-8.1 6.6-18.7 2.1-7-2.9-8.5 5.9-2 11.2 15.6 12.7 38.9 0.1 38.9-20.9 0-19.4-10-31.9-32-40.2-11.7-4.4-13.7-5.9-10.4-7.7 2.7-1.5 5.9-1.4 9.3 0.2 2.9 1.4 14.4 3.3 25.8 4.2 43.7 3.4 76.4 34 46.5 43.3-9 2.8-5.7 9.7 5.1 10.6 34.7 3 26.3-44.6-9.9-55.5z"/> <path d="m69.6 144.8c11.5-3.4 13.5-6.9 4.1-6.9-29.4 0-43.6-40.2-18-50.9 13.3-5.5 20.1 3.1 8.4 10.7-13.9 9.1-4.8 25 18.2 31.8 27.3 8.1 12.9 8.3 49 8.3l-11.2-9.8c-25.6-22.6-16.1-61.9 13.7-56.2 13.8 2.6 16.7 15.2 3.6 15.2-20.5 0-21.3 22.1-1.3 37.2 10.3 7.8 22.3 10.8 50.4 12.6 39.2 2.5 40.2 8.4 1.6 9.2-14 0.3-26.9 1.7-28.7 3-1.8 1.4-8 4.5-13.7 7-20.2 8.8-31.7 29-23.5 41.5 4 6.2 8.1 6.6 18.7 2.1 7-2.9 8.5 5.9 2 11.2-15.6 12.7-38.9 0.1-38.9-20.9 0-19.4 10-31.9 32-40.2 11.7-4.4 13.7-5.9 10.4-7.7-2.7-1.5-5.9-1.4-9.3 0.2-2.9 1.4-14.4 3.3-25.8 4.2-43.7 3.4-76.4 34-46.5 43.3 9 2.8 5.7 9.7-5.1 10.6-34.7 3-26.3-44.6 9.9-55.5z"/> <path d="m4323.6 156.9c-5.4-10.9-5-11.7 7.1-11.7 9.4 0 10.9-0.7 10.9-5 0-4.7-0.9-4.9-15.1-3.1-18.8 2.3-12.7 1.4-110.7-2.1v14.9c70.9 0 105.1-2.1 93.2 25-1.7 3.8-0.9 4.3 5 3.6 10.2-1 14.7-11.3 9.6-21.6z"/> <path d="m676.4 156.9c5.4-10.9 5-11.7-7.1-11.7-9.4 0-10.9-0.7-10.9-5 0-4.7 0.9-4.9 15.1-3.1 18.8 2.3 12.7 1.4 110.7-2.1v14.9c-70.9 0-105.1-2.1-93.2 25 1.7 3.8 0.9 4.3-5 3.6-10.2-1-14.7-11.3-9.6-21.6z"/> <path d="m4669.9 138c-7.5 0-7.6-0.6-2.5-8.6 3.6-5.5 3.6-6.4-0.1-12-5.5-8.4-12.6-7.9-14.3 1-1.7 8.4-10.5 15.1-27.6 20.7-19.2 6.3-17.3 16.5 2.1 11 23.5-6.8 55.4-0.1 55.4 11.5 0 1.6 1.8 3.9 4.1 5.1 8.7 4.9 15.1-5 9-13.8-5-7-18.7-14.9-26.1-14.9z"/> <path d="m330.1 138c7.5 0 7.6-0.6 2.5-8.6-3.6-5.5-3.6-6.4 0.1-12 5.5-8.4 12.6-7.9 14.3 1 1.7 8.4 10.5 15.1 27.6 20.7 19.2 6.3 17.3 16.5-2.1 11-23.5-6.8-55.4-0.1-55.4 11.5 0 1.6-1.8 3.9-4.1 5.1-8.7 4.9-15.1-5-9-13.8 5-7 18.7-14.9 26.1-14.9z"/> <path d="m4443 127.5c-4.1 7.7-2 8.8 7.4 4.1 14.4-7.2 28.5 2.4 21.9 14.8-4.1 7.6-12.7 10.2-21.1 6.4-11.7-5.3-9.9 5 1.9 11.4 21 11.3 42.8-11 33.4-34.1-7.8-19.4-33.7-20.9-43.5-2.6z"/> <path d="m557 127.5c4.1 7.7 2 8.8-7.4 4.1-14.4-7.2-28.5 2.4-21.9 14.8 4.1 7.6 12.7 10.2 21.1 6.4 11.7-5.3 9.9 5-1.9 11.4-21 11.3-42.8-11-33.4-34.1 7.8-19.4 33.7-20.9 43.5-2.6z"/> <path d="m4549.8 164.9c0 2.6 0.8 2.6 5.9 0.7 6.4-2.5 4.5-12.2-3.7-18.6l-7.5-5.9c16-2.6 20.7-2.8 17.6-6.5s-17.1-1.6-23.3 3.5c-4.9 4-6.9 1.5-3.7-4.6 3.9-7.3 3.2-13.4-2.4-19.3-6.2-6.7-10.5-4.4-8.7 4.6 2 9.9-4.8 17.3-15.7 17.3-10.7 0-15.3 2.7-13.4 7.7 1.2 3.1 5.4 3.9 21.2 3.9 19.4 0 33.7 7.2 33.7 17.2z"/> <path d="m450.2 164.9c0 2.6-0.8 2.6-5.9 0.7-6.4-2.5-4.5-12.2 3.7-18.6l7.5-5.9c-16-2.6-20.7-2.8-17.6-6.5s17.1-1.6 23.3 3.5c4.9 4 6.9 1.5 3.7-4.6-3.9-7.3-3.2-13.4 2.4-19.3 6.2-6.7 10.5-4.4 8.7 4.6-2 9.9 4.8 17.3 15.7 17.3 10.7 0 15.3 2.7 13.4 7.7-1.2 3.1-5.4 3.9-21.2 3.9-19.4 0-33.7 7.2-33.7 17.2z"/> <path d="m4403.5 152.8c3.9 6.4 24.4-4.8 50-6.3 12.8-0.7 15.4-1.9 12.9-5.9-1-1.6-7.3-2-16.6-1.2-33.8 3.1-49.8 7.7-46.3 13.4z"/> <path d="m596.5 152.8c-3.9 6.4-24.4-4.8-50-6.3-12.8-0.7-15.4-1.9-12.9-5.9 1-1.6 7.3-2 16.6-1.2 33.8 3.1 49.8 7.7 46.3 13.4z"/> <path d="m4995.2 128.3c-11-5.9-21.8 10-13.2 19.5 8.3 9.2 18.1 4.4 18.1-9-0.1-5.4-1.6-8.7-4.9-10.5z"/> <path d="m4.8 128.3c11-5.9 21.8 10 13.2 19.5-8.3 9.2-18 4.4-18-9 0-5.4 1.5-8.7 4.8-10.5z"/> <path d="m4956.4 140.4c0 2.5 1.9 5.7 4.2 7 7.9 4.4 14.2-7 7.5-13.6-3.8-3.9-11.7 0.5-11.7 6.6z"/> <path d="m43.6 140.4c0 2.5-1.9 5.7-4.2 7-7.9 4.4-14.2-7-7.5-13.6 3.8-3.9 11.7 0.5 11.7 6.6z"/> <path d="m4162.7 97.3c25 0 45.3 20.3 45.3 45.3s-20.3 45.3-45.3 45.3h-3325.4c-25 0-45.3-20.3-45.3-45.3s20.3-45.3 45.3-45.3h3325.4zm0 78.4c18.3 0 33.2-14.9 33.2-33.2s-14.9-33.2-33.2-33.2h-3325.4c-18.3 0-33.2 14.9-33.2 33.2s14.9 33.2 33.2 33.2h3325.4z"/> <path d="m4162.6 124.3c10.1 0 18.3 8.2 18.3 18.3s-8.2 18.3-18.3 18.3h-3325.2c-10.1 0-18.3-8.2-18.3-18.3s8.2-18.3 18.3-18.3h3325.2z"/> </svg>